<?xml version="1.0" standalone="no"?>
<!DOCTYPE svg PUBLIC "-//W3C//DTD SVG 20010904//EN"
 "http://www.w3.org/TR/2001/REC-SVG-20010904/DTD/svg10.dtd">
<svg version="1.0" xmlns="http://www.w3.org/2000/svg"
 width="3264.000000pt" height="2448.000000pt" viewBox="0 0 3264.000000 2448.000000"
 preserveAspectRatio="xMidYMid meet">
<metadata>
Created by potrace 1.14, written by Peter Selinger 2001-2017
</metadata>
<g transform="translate(0.000000,2448.000000) scale(0.100000,-0.100000)"
fill="#000000" stroke="none">
<path d="M2866 24448 c4 -18 13 -58 20 -88 23 -90 26 -87 -76 -92 -84 -5 -140
-23 -140 -46 0 -4 46 -3 103 3 111 13 391 13 420 1 12 -6 17 -4 17 7 0 23 -25
28 -153 34 -65 3 -120 9 -122 14 -5 7 94 49 118 49 45 0 197 105 197 136 0 23
-19 16 -46 -15 -30 -36 -82 -63 -185 -98 l-81 -26 -19 24 c-10 13 -22 46 -26
73 -4 27 -14 51 -20 53 -9 3 -11 -5 -7 -29z"/>
<path d="M7455 24443 c-4 -21 -13 -69 -20 -108 -13 -63 -21 -140 -40 -360 -4
-38 -8 -419 -9 -845 -2 -426 -6 -1054 -9 -1395 -3 -341 -8 -973 -11 -1405 -2
-432 -7 -888 -10 -1015 -4 -126 -9 -311 -11 -410 -3 -99 -7 -234 -10 -300 -5
-135 -7 -425 -6 -1105 0 -256 -2 -526 -4 -599 -2 -76 1 -143 6 -153 5 -10 6
-18 1 -18 -8 0 -8 -312 0 -542 2 -49 0 -88 -5 -88 -6 0 -5 -5 0 -12 8 -11 11
-223 3 -223 -2 0 -2 2 3 -402 3 -178 2 -323 -2 -323 -4 0 -6 -161 -5 -357 3
-661 4 -798 5 -818 0 -11 0 -24 0 -30 0 -5 -3 -170 -7 -365 l-6 -355 -29 -62
c-16 -34 -29 -76 -29 -93 0 -17 -9 -50 -20 -72 -11 -23 -20 -52 -20 -64 0 -12
-7 -38 -15 -58 -8 -20 -16 -48 -16 -64 0 -15 -3 -126 -6 -247 -3 -155 -1 -237
8 -279 11 -54 11 -60 -6 -72 -10 -8 -30 -14 -43 -14 -13 0 -48 -11 -78 -25
-30 -14 -59 -25 -65 -25 -6 0 -47 -20 -91 -45 -44 -25 -89 -45 -99 -45 -16 0
-18 -3 -9 -20 9 -16 6 -22 -22 -36 -39 -20 -132 -85 -136 -96 -2 -5 -9 -8 -17
-8 -7 0 -32 -11 -56 -24 -24 -13 -55 -27 -69 -31 -14 -4 -32 -13 -40 -20 -37
-29 -129 -56 -276 -80 -87 -14 -202 -34 -254 -44 -154 -30 -221 -39 -300 -41
-41 -1 -78 -4 -82 -6 -4 -3 -54 -11 -110 -19 -86 -12 -166 -26 -213 -39 -5 -2
-23 -8 -38 -14 -16 -7 -32 -12 -37 -12 -5 0 -12 -5 -15 -11 -8 -12 32 -59 50
-59 12 0 69 -24 95 -41 8 -5 26 -14 40 -20 14 -6 32 -15 40 -20 54 -32 96 -51
151 -69 35 -12 73 -25 84 -30 58 -24 86 -31 142 -35 35 -2 100 -13 145 -24 46
-11 130 -24 188 -30 58 -6 119 -15 135 -20 17 -5 47 -15 68 -21 22 -7 63 -9
95 -6 31 3 179 8 327 12 149 3 290 9 315 13 25 4 76 5 113 2 l69 -6 14 -40 c7
-22 14 -62 14 -90 0 -27 7 -79 15 -114 20 -83 23 -110 25 -201 1 -41 4 -67 7
-57 11 43 33 -1 35 -73 1 -17 5 -33 10 -36 4 -3 8 -23 8 -45 0 -41 35 -109 73
-140 20 -16 19 -16 -29 -34 -27 -10 -55 -23 -63 -29 -10 -8 -17 -5 -28 9 -12
15 -14 16 -10 3 4 -12 -2 -18 -28 -22 -18 -4 -60 -20 -92 -36 -32 -16 -67 -30
-79 -30 -11 0 -24 -4 -30 -9 -10 -9 -108 -47 -159 -61 -36 -10 -89 -29 -130
-46 -50 -21 -118 -45 -160 -56 -22 -6 -42 -14 -45 -18 -3 -4 -26 -12 -53 -20
-26 -7 -50 -17 -53 -21 -3 -5 -14 -9 -25 -9 -10 0 -27 -4 -37 -9 -15 -9 -78
-28 -202 -61 -19 -5 -69 -16 -110 -24 -41 -8 -93 -22 -115 -30 -50 -19 -119
-20 -134 -3 -8 10 -24 12 -56 7 -25 -4 -48 -10 -52 -14 -15 -14 15 -41 53 -48
53 -9 91 -24 115 -47 11 -10 41 -27 67 -36 26 -10 67 -30 92 -45 47 -29 78
-40 175 -61 33 -7 69 -19 80 -26 11 -7 31 -13 44 -13 42 0 144 -21 191 -40 25
-10 54 -18 65 -18 11 0 36 -2 55 -6 19 -3 55 -6 80 -7 25 0 97 -1 160 -2 173
-3 299 2 337 12 30 9 35 7 43 -12 6 -16 9 -17 9 -5 1 21 47 37 95 32 21 -2 66
3 100 11 33 8 63 15 66 15 3 0 7 -16 8 -37 2 -20 5 -41 9 -46 3 -5 7 -26 10
-46 2 -20 8 -49 14 -65 5 -16 9 -46 9 -66 0 -23 9 -51 25 -74 14 -21 34 -55
45 -76 18 -36 119 -166 177 -230 13 -14 23 -28 23 -33 0 -4 50 -57 110 -117
61 -60 110 -114 110 -120 0 -21 87 -104 155 -148 77 -50 107 -78 130 -123 10
-19 23 -29 38 -29 12 0 41 -11 64 -24 23 -13 56 -27 73 -31 17 -4 34 -13 37
-21 3 -8 16 -14 29 -14 17 0 28 -8 36 -27 7 -16 30 -55 52 -87 21 -33 66 -111
98 -175 33 -64 64 -120 69 -126 5 -5 9 -15 9 -21 0 -30 75 -119 223 -266 87
-86 167 -160 178 -163 10 -4 19 -11 19 -16 0 -6 4 -7 10 -4 8 5 55 -26 126
-84 10 -8 59 -32 229 -111 33 -15 98 -46 145 -68 100 -47 258 -98 361 -117 41
-7 85 -16 99 -20 14 -3 59 -12 101 -19 41 -7 82 -17 89 -21 8 -5 23 -10 35
-11 37 -5 139 -23 215 -38 179 -35 332 -57 405 -58 70 -1 348 -6 382 -7 7 -1
20 -18 29 -39 12 -29 13 -43 5 -68 -11 -31 -10 -32 137 -180 82 -82 164 -163
183 -180 33 -29 169 -175 169 -181 0 -1 8 -12 17 -23 21 -24 58 -26 67 -4 7
19 -3 64 -15 64 -5 0 -17 13 -27 29 -9 15 -37 52 -62 81 -61 72 -69 88 -70
142 0 26 -4 49 -9 52 -18 12 -58 151 -70 248 -6 56 -6 57 19 62 14 3 48 5 75
5 175 1 403 13 471 26 27 5 34 3 34 -9 0 -9 11 -39 24 -68 13 -29 30 -71 36
-93 7 -22 16 -44 20 -50 4 -5 20 -39 34 -75 15 -36 31 -74 36 -85 33 -77 63
-143 73 -160 38 -70 55 -104 62 -124 4 -13 20 -42 36 -66 16 -24 29 -46 29
-50 0 -13 124 -135 137 -135 7 0 13 -4 13 -9 0 -5 40 -23 90 -40 97 -34 190
-42 190 -17 0 28 -12 46 -31 46 -10 0 -28 4 -41 9 -13 5 -49 16 -80 25 -44 13
-65 26 -93 59 -40 46 -91 145 -101 195 -4 18 -11 35 -15 38 -5 3 -9 14 -9 24
0 11 -11 43 -24 72 -13 29 -39 103 -56 163 -18 61 -40 128 -50 150 -20 45 -46
132 -55 187 -7 34 -5 36 24 43 17 4 46 8 64 10 103 10 289 36 332 45 28 7 68
14 90 17 22 3 45 8 50 12 6 4 37 13 70 20 121 24 216 55 281 91 17 10 45 21
62 25 27 6 321 144 372 174 8 5 47 26 85 46 39 21 79 45 90 55 11 10 25 19 31
21 7 2 32 21 55 41 24 21 74 59 110 85 37 26 98 75 136 108 38 33 82 69 97 80
51 35 254 236 381 376 68 74 192 207 277 295 85 87 186 195 224 239 38 44 100
116 139 160 39 44 86 103 105 130 40 58 67 89 170 200 139 148 204 207 397
356 58 44 82 45 101 5 10 -22 62 -56 85 -56 11 0 144 -87 152 -100 3 -5 28
-21 55 -36 28 -15 50 -31 50 -36 0 -4 5 -8 10 -8 13 0 98 -39 130 -60 14 -9
45 -22 70 -30 25 -8 61 -21 80 -31 162 -79 207 -99 219 -99 8 0 48 -13 90 -29
42 -16 96 -34 121 -41 25 -7 72 -21 105 -31 33 -10 103 -28 155 -40 52 -12
114 -30 136 -40 44 -18 297 -83 374 -94 24 -4 51 -11 60 -15 18 -9 67 -22 170
-45 173 -38 379 -88 438 -106 34 -10 69 -19 76 -19 18 0 42 -37 51 -80 4 -19
14 -44 21 -55 8 -11 14 -28 14 -39 0 -10 9 -33 20 -51 19 -30 44 -122 53 -195
5 -41 58 -200 94 -280 13 -30 36 -84 49 -120 14 -36 36 -85 48 -110 13 -25 28
-65 35 -90 26 -92 45 -136 82 -190 20 -30 50 -86 65 -125 29 -73 69 -138 132
-216 85 -105 130 -167 157 -214 16 -27 42 -66 58 -85 17 -19 43 -62 58 -95 16
-33 43 -85 60 -115 17 -30 38 -73 47 -95 9 -22 35 -65 58 -95 23 -30 48 -69
57 -86 9 -17 35 -55 59 -85 24 -30 52 -71 63 -92 11 -21 28 -45 38 -54 9 -9
17 -20 17 -25 0 -11 65 -111 94 -145 30 -33 80 -92 114 -133 16 -19 36 -48 45
-65 8 -16 50 -71 94 -121 43 -50 119 -140 170 -200 50 -60 108 -125 129 -144
20 -19 51 -50 68 -69 107 -117 264 -265 362 -341 197 -154 227 -171 394 -223
36 -11 70 -23 75 -27 14 -10 88 -22 155 -25 122 -5 348 -25 390 -35 66 -16
416 -25 432 -12 17 14 187 6 237 -11 20 -7 58 -14 85 -16 27 -1 72 -7 100 -12
28 -6 116 -12 196 -14 84 -3 176 -11 220 -21 87 -19 342 -21 387 -2 16 6 80
12 144 14 102 2 201 14 249 31 8 3 22 7 30 8 8 1 37 10 63 19 27 10 67 19 90
22 23 3 66 14 95 24 29 11 64 20 77 20 13 0 26 4 30 9 3 6 27 13 53 16 78 11
162 42 162 61 0 20 -43 28 -108 20 -111 -14 -436 -14 -533 0 -52 7 -96 14 -99
14 -3 0 -11 4 -19 9 -11 7 -11 16 5 50 11 22 24 41 29 41 17 0 236 70 300 96
33 13 66 24 73 24 7 0 20 4 30 9 59 31 156 71 172 71 10 0 26 7 35 16 14 15
15 19 2 31 -16 16 -157 19 -219 4 -20 -5 -39 -7 -41 -4 -3 2 -38 -5 -78 -16
-120 -31 -364 -44 -423 -22 -14 6 -82 67 -150 135 -68 68 -141 132 -162 142
-22 10 -41 21 -44 24 -14 18 -219 75 -305 85 -5 0 -26 4 -45 8 -19 3 -118 9
-220 11 -291 9 -359 14 -470 36 -25 5 -67 12 -95 15 -69 8 -175 40 -265 80
-41 18 -100 43 -130 54 -47 19 -120 57 -195 104 -23 14 -94 66 -111 82 -6 5
-37 30 -68 55 -126 99 -338 294 -407 373 -88 100 -109 125 -109 132 0 3 -15
22 -32 41 -18 20 -37 44 -43 54 -5 10 -54 65 -109 123 -109 117 -112 121 -151
192 -16 28 -45 73 -65 100 -57 78 -200 347 -200 377 0 9 -5 20 -10 23 -6 4 -8
10 -5 14 2 4 -6 22 -18 38 -23 31 -72 134 -102 213 -10 25 -21 54 -25 65 -25
63 -77 232 -85 277 -2 9 -8 26 -14 37 -6 11 -11 39 -11 63 0 62 -21 131 -70
230 -35 69 -51 91 -82 108 -51 29 -50 44 5 36 23 -4 82 -12 130 -17 49 -5 93
-11 97 -14 17 -11 322 -53 395 -54 33 -1 121 -4 195 -7 193 -8 370 -8 485 0
55 4 273 9 484 11 354 4 388 3 441 -14 61 -20 120 -50 160 -80 14 -10 57 -39
95 -64 39 -25 90 -66 115 -92 25 -25 70 -60 100 -78 61 -35 159 -107 180 -132
8 -9 43 -32 79 -51 102 -53 160 -91 225 -147 91 -78 137 -112 181 -135 81 -41
232 -157 370 -284 29 -27 57 -48 63 -48 6 0 12 -4 14 -9 2 -5 46 -38 98 -75
52 -37 106 -74 119 -84 76 -55 146 -99 216 -136 39 -21 79 -46 90 -56 11 -10
35 -25 53 -34 18 -10 36 -24 39 -32 3 -7 10 -14 17 -14 10 0 192 -104 246
-140 8 -6 22 -13 30 -17 8 -3 28 -17 44 -30 15 -13 42 -30 60 -38 17 -8 38
-19 46 -24 8 -5 58 -30 110 -56 52 -25 118 -60 145 -76 28 -16 57 -31 65 -34
8 -4 29 -12 45 -20 17 -7 48 -22 70 -31 22 -10 46 -24 53 -31 7 -7 22 -13 31
-13 10 0 24 -6 30 -14 7 -8 28 -17 49 -21 20 -4 42 -10 47 -15 18 -14 192 -70
218 -70 30 0 98 -22 172 -54 48 -21 145 -52 230 -74 82 -21 160 -46 165 -53 3
-4 24 -7 47 -7 23 0 59 -5 80 -11 21 -5 65 -15 98 -21 33 -7 71 -16 85 -21 14
-5 48 -14 75 -19 28 -5 93 -21 145 -36 52 -14 128 -32 169 -40 41 -7 88 -18
105 -23 17 -6 58 -13 91 -16 33 -4 128 -17 210 -31 83 -13 215 -31 294 -39 79
-8 150 -20 157 -26 7 -6 23 -12 36 -14 13 -1 43 -10 68 -18 25 -9 66 -19 93
-22 26 -4 47 -10 47 -14 0 -3 12 -7 28 -8 87 -4 163 -13 173 -19 10 -6 287
-17 419 -16 30 0 89 5 130 11 128 18 162 22 250 30 95 8 440 6 598 -4 60 -4
116 -2 135 4 17 5 57 12 87 15 30 3 70 10 89 15 19 6 37 8 42 6 4 -3 13 0 21
7 28 27 78 48 111 48 20 0 38 4 41 9 3 4 33 12 68 15 34 4 76 15 92 24 29 15
40 18 88 25 9 2 25 10 35 18 10 9 34 23 54 32 20 9 52 34 71 54 18 21 45 44
59 51 43 23 129 111 129 133 0 11 5 17 10 14 13 -8 13 44 -1 84 -6 17 -15 31
-20 31 -5 0 -9 7 -9 16 0 8 -4 13 -9 10 -5 -4 -12 7 -16 23 -3 16 -23 45 -43
65 -118 112 -158 147 -184 158 -15 7 -28 16 -28 19 0 26 -503 52 -527 28 -5
-5 -32 -10 -59 -9 -68 1 -70 1 -149 -6 -38 -3 -78 -6 -87 -7 -10 -1 -18 -4
-18 -8 0 -12 -331 -30 -523 -29 -49 0 -94 -3 -100 -7 -30 -19 -163 -17 -289 3
-76 12 -128 15 -198 9 -122 -9 -96 -9 -315 -1 -104 4 -215 12 -245 18 -30 5
-70 9 -88 9 -18 -1 -61 5 -95 13 -34 8 -91 19 -127 26 -140 24 -177 33 -244
56 -38 14 -84 27 -103 30 -19 3 -75 19 -125 35 -50 16 -96 29 -103 29 -6 0
-30 9 -53 20 -22 11 -47 20 -55 20 -7 0 -17 4 -22 9 -6 5 -29 17 -52 25 -100
37 -122 46 -174 69 -30 14 -74 30 -99 37 -25 6 -99 36 -165 65 -116 52 -153
66 -158 63 -1 -1 -29 12 -62 29 -120 62 -301 146 -365 168 -64 22 -107 40
-202 84 -26 11 -51 21 -55 21 -5 0 -24 8 -43 19 -19 10 -45 21 -58 25 -12 4
-51 25 -87 47 -36 21 -68 39 -71 39 -4 0 -41 17 -83 39 -42 21 -99 46 -127 55
-28 9 -60 23 -70 31 -10 8 -29 15 -40 15 -50 0 -256 97 -325 151 -20 16 -41
29 -46 29 -5 0 -24 15 -43 33 -39 38 -172 128 -293 200 -44 26 -85 54 -91 62
-6 8 -23 18 -37 24 -14 5 -55 32 -91 59 -36 28 -90 59 -119 68 -30 10 -67 26
-84 36 -16 10 -41 18 -55 18 -35 0 -114 25 -195 61 -11 5 -49 20 -85 32 -36
13 -77 31 -90 40 -13 9 -39 17 -56 17 -17 0 -37 7 -44 15 -7 8 -20 15 -29 15
-9 0 -43 14 -76 30 -33 16 -67 30 -75 30 -18 0 -64 18 -148 55 -57 26 -62 30
-46 42 10 7 25 13 34 13 10 0 37 13 61 30 24 16 52 30 61 30 10 0 41 11 70 24
140 64 158 73 191 104 12 11 47 34 77 50 30 15 74 40 97 55 24 15 45 27 48 27
8 0 69 44 73 53 2 4 9 7 15 7 7 0 30 16 52 35 22 19 43 35 46 35 3 0 24 14 45
31 22 17 59 42 84 55 25 13 54 30 65 37 10 6 40 26 66 42 26 17 67 41 90 55
23 14 64 40 90 58 27 17 51 32 54 32 3 0 18 11 33 25 14 13 52 38 83 55 32 17
59 35 61 40 2 5 93 101 203 214 110 112 224 232 253 267 29 35 63 77 75 92 13
15 36 34 50 42 52 27 192 44 387 49 107 3 206 7 220 11 14 3 61 11 105 16 44
5 100 13 125 18 25 6 83 15 130 21 47 6 139 24 205 40 227 53 286 66 347 74
10 1 21 5 24 9 4 4 21 7 37 7 16 0 55 6 86 14 31 8 85 17 121 21 36 3 94 10
130 16 36 6 90 13 120 15 102 7 525 59 560 69 20 6 100 12 250 20 140 8 144 6
153 -55 14 -96 18 -115 28 -126 5 -6 16 -37 24 -67 8 -31 25 -67 40 -81 14
-14 25 -30 25 -37 0 -20 41 -69 59 -69 9 0 35 -17 58 -37 35 -32 43 -47 52
-98 17 -91 35 -155 43 -155 5 0 8 -11 8 -24 0 -14 5 -28 10 -31 6 -4 8 -10 5
-14 -10 -17 17 -137 35 -155 18 -18 19 -18 44 0 30 22 33 61 13 139 -15 56
-22 251 -9 259 15 9 83 -12 97 -31 8 -10 14 -27 14 -38 -1 -41 44 -231 58
-247 8 -9 22 -31 31 -49 21 -41 42 -54 75 -45 23 5 27 12 27 41 0 19 -4 35 -9
35 -5 0 -12 15 -15 34 -4 19 -13 39 -21 46 -8 7 -13 15 -11 19 3 4 -9 45 -25
91 -17 47 -33 95 -36 107 -6 25 8 31 82 34 45 3 115 31 123 51 2 4 9 8 15 8 7
0 23 9 37 19 33 26 49 100 38 182 -4 35 -12 109 -18 164 -13 128 -45 288 -58
293 -6 2 -9 9 -6 17 11 28 -16 93 -51 119 -38 29 -56 85 -35 111 17 21 2 38
-32 33 -16 -3 -57 0 -91 7 -34 6 -84 10 -112 9 -27 -2 -120 -5 -205 -8 -236
-9 -358 -14 -555 -26 -99 -6 -209 -12 -245 -14 -184 -10 -371 -29 -417 -42
-30 -8 -182 -23 -355 -34 -234 -15 -318 -24 -370 -40 -37 -11 -70 -25 -73 -30
-4 -6 -19 -10 -36 -10 -75 0 -498 -124 -515 -151 -3 -5 -47 -9 -97 -9 -83 0
-314 -15 -349 -22 -15 -3 -15 18 1 77 6 22 14 90 17 150 3 61 7 126 9 145 2
19 4 81 4 138 l1 102 44 0 c25 0 48 5 51 11 4 6 37 10 73 10 135 -2 483 38
523 60 11 6 50 14 87 19 74 9 87 12 152 36 63 23 107 34 165 40 28 3 88 18
135 34 47 15 109 31 139 34 29 4 58 9 63 12 6 4 27 8 47 9 20 2 63 13 96 25
33 12 80 25 105 30 73 13 254 62 265 70 15 12 237 18 335 9 61 -6 110 -4 172
7 49 8 148 17 220 19 73 2 167 8 208 15 41 6 95 13 120 16 25 2 101 11 170 19
69 7 168 14 220 14 107 1 273 11 279 17 11 11 9 39 -5 58 -8 11 -14 28 -14 38
0 9 -9 32 -19 50 -14 25 -22 70 -31 188 -6 85 -18 196 -27 245 -8 50 -19 122
-24 160 -5 39 -16 82 -24 97 -9 15 -14 30 -13 35 6 23 -93 173 -115 173 -5 0
-20 9 -34 20 -14 11 -34 20 -43 20 -10 0 -31 7 -46 15 -16 8 -36 15 -44 15 -8
0 -24 7 -34 15 -11 8 -26 15 -34 15 -18 0 -51 40 -52 63 0 9 -4 25 -9 35 -16
32 -43 117 -48 150 -3 17 -9 32 -13 32 -7 0 -14 23 -26 84 -9 42 -49 61 -72
34 -14 -18 3 -129 29 -187 20 -44 40 -106 53 -163 4 -19 2 -28 -6 -28 -6 0
-19 -7 -28 -15 -9 -8 -34 -16 -54 -18 -35 -2 -38 0 -51 36 -7 20 -10 37 -8 37
3 0 1 6 -4 13 -12 14 -79 245 -88 299 -3 21 -10 40 -15 43 -15 9 -52 -5 -47
-18 2 -7 0 -20 -5 -29 -10 -21 8 -138 29 -188 9 -19 24 -53 33 -75 22 -50 40
-124 40 -165 0 -22 -17 -53 -62 -113 l-63 -82 1 -73 c1 -52 6 -78 18 -91 9
-10 16 -26 16 -37 0 -19 42 -66 113 -125 20 -17 37 -34 37 -39 0 -19 -324 -41
-830 -55 -118 -4 -260 -13 -315 -22 -99 -15 -219 -26 -410 -38 -55 -3 -124
-10 -154 -15 -30 -6 -82 -10 -115 -10 -34 0 -92 -5 -131 -11 -38 -5 -88 -12
-110 -15 -22 -3 -69 -9 -105 -15 -36 -6 -103 -14 -150 -19 -47 -4 -96 -10
-110 -13 -14 -4 -74 -9 -134 -12 -140 -7 -266 -21 -356 -40 -39 -8 -115 -15
-170 -15 -95 0 -98 -1 -116 -27 -12 -19 -19 -23 -22 -14 -2 7 -12 22 -21 31
-9 10 -38 50 -66 89 -27 39 -53 71 -58 71 -11 0 -77 51 -127 98 -19 18 -48 42
-65 54 -16 11 -39 34 -50 51 -11 17 -33 35 -50 40 -16 5 -68 27 -113 48 -46
22 -87 39 -90 39 -12 0 -132 64 -150 79 -25 22 -117 71 -134 71 -8 0 -20 6
-26 12 -7 7 -36 18 -65 24 -28 7 -142 43 -252 82 -111 38 -227 72 -260 75 -61
6 -175 35 -230 56 -16 7 -31 12 -33 12 -1 -1 -15 5 -30 12 -15 8 -51 17 -80
21 -29 4 -115 23 -190 43 -75 20 -177 39 -227 44 -49 4 -101 12 -115 17 -14 5
-46 12 -72 16 -26 4 -50 11 -53 17 -4 5 -14 9 -23 9 -9 0 -30 7 -46 15 -15 8
-37 15 -48 15 -11 0 -34 6 -51 14 -119 52 -150 57 -289 49 -159 -9 -314 -10
-383 -1 -51 7 -201 29 -335 50 -41 6 -149 12 -240 14 -91 1 -203 6 -250 11
-49 5 -104 5 -130 0 -65 -12 -605 -18 -635 -7 -32 12 -61 18 -152 30 -71 9
-86 8 -128 -11 -47 -21 -198 -58 -276 -69 -126 -16 -190 -28 -344 -65 -77 -18
-167 -39 -200 -46 -33 -7 -87 -25 -119 -41 -33 -15 -80 -30 -105 -34 -25 -4
-50 -10 -56 -14 -14 -10 -172 -57 -217 -65 -40 -6 -150 -49 -213 -84 -57 -31
-64 -18 -58 122 3 61 6 235 7 384 2 161 7 278 13 285 11 14 37 123 53 223 19
117 29 153 62 221 19 38 42 96 52 129 29 100 48 138 87 180 20 22 53 65 72 95
19 30 52 71 72 90 20 19 50 54 66 78 16 23 33 48 39 55 6 6 52 64 101 127 50
63 108 133 129 155 21 22 46 56 55 75 19 38 149 170 204 208 19 13 64 37 100
54 107 48 158 76 207 113 25 19 50 35 55 35 6 0 29 13 52 29 23 15 74 40 112
55 93 35 255 117 283 144 7 6 17 12 21 12 4 0 16 8 27 18 10 10 37 31 59 47
22 17 42 33 45 36 3 3 19 13 36 22 29 15 119 98 154 142 26 33 38 72 33 108
-4 30 -1 36 19 42 13 4 30 13 38 20 27 24 212 125 229 125 9 0 27 9 41 20 14
11 29 20 33 20 5 0 23 10 40 23 17 12 41 27 52 32 11 6 20 19 20 30 0 18 -7
20 -70 21 -38 0 -75 -3 -81 -8 -6 -4 -69 -11 -140 -14 -71 -4 -155 -12 -186
-19 -62 -14 -60 -15 -86 35 -12 23 -11 27 15 48 15 13 39 31 53 40 14 9 43 30
65 47 51 40 153 98 278 160 54 27 101 53 103 57 21 34 -69 48 -176 29 -173
-32 -220 -47 -315 -106 -22 -14 -51 -30 -65 -36 -14 -6 -46 -24 -73 -41 -26
-17 -55 -28 -66 -25 -20 5 -155 -23 -216 -46 -22 -8 -101 -34 -175 -58 -118
-37 -350 -144 -400 -183 -26 -21 -156 -76 -179 -76 -41 0 -134 -32 -156 -54
-11 -11 -41 -34 -64 -50 -24 -15 -62 -44 -85 -65 -46 -41 -79 -61 -100 -61 -7
0 -19 -7 -26 -15 -7 -8 -24 -21 -39 -28 -14 -7 -35 -18 -46 -25 -11 -6 -50
-25 -86 -42 -82 -38 -105 -63 -164 -175 -75 -143 -109 -203 -122 -217 -7 -6
-13 -18 -13 -24 0 -7 -6 -19 -13 -26 -6 -7 -25 -38 -40 -68 -15 -30 -43 -81
-62 -112 -18 -32 -37 -68 -41 -80 -4 -13 -18 -39 -31 -58 -50 -75 -73 -106
-92 -131 -11 -14 -39 -68 -62 -120 -24 -52 -71 -137 -105 -189 -33 -52 -75
-129 -92 -170 -39 -96 -108 -224 -190 -355 -21 -33 -37 -77 -47 -129 -11 -58
-30 -107 -69 -180 -49 -91 -144 -327 -162 -402 -4 -16 -17 -47 -30 -69 -14
-25 -25 -64 -28 -104 -3 -35 -10 -69 -16 -76 -6 -7 -15 -57 -20 -111 -5 -55
-15 -135 -21 -179 -25 -185 -27 -326 -5 -377 6 -13 2 -19 -21 -24 -15 -3 -63
-17 -106 -30 -42 -13 -94 -26 -115 -28 -20 -3 -64 -8 -97 -11 -33 -4 -87 -15
-120 -25 -33 -10 -85 -22 -115 -25 -142 -18 -319 -79 -460 -160 -84 -48 -135
-73 -215 -107 -49 -21 -93 -38 -96 -38 -3 0 -20 30 -37 68 -17 37 -60 112 -96
167 -36 55 -85 134 -109 175 -25 41 -63 100 -85 130 -23 30 -51 70 -64 88 -13
18 -28 39 -33 45 -6 7 -22 28 -35 47 -14 19 -55 66 -92 104 -38 38 -79 83 -92
100 -13 17 -47 54 -76 81 -30 28 -96 93 -149 146 -53 53 -193 187 -311 299
-259 245 -552 539 -583 584 -12 18 -39 58 -59 89 -21 31 -44 60 -51 64 -7 4
-20 19 -29 33 -9 14 -24 34 -34 45 -11 11 -32 40 -49 65 -16 25 -39 54 -50 66
-50 52 -142 160 -164 192 -13 19 -30 42 -37 51 -108 132 -142 172 -173 206
-21 22 -45 52 -54 68 -10 15 -25 27 -34 27 -9 0 -30 16 -47 36 -46 53 -126
106 -271 178 -71 36 -146 75 -165 86 -72 44 -116 65 -145 72 -16 4 -68 20
-114 37 -46 16 -115 32 -154 36 -38 4 -86 14 -105 22 -45 19 -494 22 -560 4
-27 -8 -79 -10 -135 -7 -65 4 -109 1 -152 -11 -33 -8 -76 -17 -95 -19 -19 -2
-57 -8 -85 -13 -27 -5 -86 -10 -130 -11 -44 0 -102 -7 -129 -15 -27 -8 -65
-15 -85 -15 -20 0 -55 -7 -79 -15 -24 -9 -68 -17 -98 -19 -29 -2 -80 -11 -111
-20 -64 -18 -189 -55 -213 -63 -8 -3 -46 -13 -85 -23 -38 -10 -90 -25 -115
-34 -25 -10 -81 -28 -125 -42 -44 -13 -116 -36 -160 -50 -44 -14 -91 -26 -105
-28 -14 -1 -33 -6 -44 -11 -14 -6 -23 -2 -37 16 -10 13 -19 29 -19 35 0 6 -7
18 -17 25 -30 26 -52 94 -68 215 -8 65 -23 153 -32 194 -10 41 -18 107 -18
145 0 68 -2 72 -34 67 -4 -1 -16 -30 -26 -64 -15 -54 -38 -102 -55 -118 -3 -3
-12 -25 -19 -50 -8 -25 -21 -56 -29 -69 -18 -29 -10 -138 13 -194 8 -20 15
-49 15 -66 0 -17 15 -50 36 -81 20 -28 48 -73 64 -100 l28 -47 -37 -16 c-20
-9 -49 -21 -66 -27 -27 -10 -115 -51 -187 -87 -14 -7 -32 -13 -39 -13 -30 0
-249 263 -249 298 0 5 -9 17 -19 26 -11 10 -47 75 -81 145 -34 69 -66 134 -71
144 -6 10 -9 63 -8 117 2 104 -6 130 -41 130 -24 0 -33 -23 -36 -100 -2 -36
-8 -123 -14 -195 -14 -174 -13 -188 16 -270 14 -38 28 -79 32 -90 3 -11 14
-28 24 -39 10 -11 18 -23 18 -27 0 -4 14 -23 30 -41 17 -18 30 -38 30 -44 0
-7 3 -14 8 -16 4 -2 25 -30 47 -62 22 -32 44 -65 49 -72 7 -8 5 -18 -3 -28
-16 -19 -66 -34 -226 -67 -27 -6 -81 -26 -119 -45 -39 -19 -87 -37 -106 -41
-51 -9 -118 -39 -179 -81 -65 -45 -67 -46 -111 -62 -176 -63 -180 -65 -297
-146 -49 -33 -138 -89 -199 -123 -61 -34 -121 -71 -132 -82 -12 -10 -81 -46
-154 -79 -73 -34 -135 -64 -138 -68 -3 -4 -29 -24 -58 -45 -29 -21 -107 -93
-173 -162 -67 -68 -130 -127 -140 -130 -10 -3 -22 -16 -26 -28 -10 -28 -20
250 -11 318 3 28 6 1164 6 2525 0 1361 3 2509 6 2550 6 78 10 239 21 825 12
676 14 834 16 1310 1 264 6 561 10 660 10 198 11 335 4 407 -3 26 -1 50 5 53
6 4 8 10 5 15 -3 5 -5 262 -4 572 1 310 1 703 1 873 0 171 4 366 9 435 5 69
10 161 10 205 0 44 4 109 10 145 5 36 14 100 19 144 5 43 12 87 15 97 4 13 1
19 -9 19 -10 0 -17 -13 -21 -37z m13575 -7982 c0 -5 -17 -17 -37 -26 -34 -16
-78 -45 -218 -143 -37 -26 -43 -27 -79 -17 -22 6 -41 16 -43 22 -5 13 25 25
39 17 6 -4 13 -3 17 2 3 5 17 17 31 26 14 10 45 31 69 49 50 35 75 46 146 64
63 16 75 17 75 6z m-432 -205 c15 -8 35 -17 45 -20 15 -5 17 -12 12 -35 -5
-23 -2 -32 13 -40 12 -6 29 -42 47 -98 15 -48 34 -106 41 -128 l14 -39 -57
-51 c-35 -32 -53 -54 -46 -58 14 -9 61 8 86 30 27 25 33 6 12 -35 -26 -51 -52
-79 -110 -118 -27 -19 -79 -57 -115 -84 -90 -70 -152 -110 -167 -110 -7 0 -39
-20 -70 -44 -33 -25 -73 -46 -93 -49 -56 -8 -231 -97 -286 -145 -14 -13 -96
-59 -181 -103 -144 -73 -161 -85 -242 -166 -47 -49 -95 -101 -106 -116 -27
-38 -46 -62 -97 -125 -24 -30 -52 -66 -63 -81 -11 -15 -48 -61 -82 -103 -34
-42 -68 -89 -77 -105 -8 -17 -42 -59 -75 -94 -33 -35 -61 -69 -61 -76 0 -7
-25 -40 -55 -74 -51 -57 -85 -110 -85 -132 0 -5 -6 -23 -14 -40 -8 -18 -22
-54 -32 -82 -10 -27 -25 -61 -34 -75 -30 -44 -34 -60 -70 -255 -12 -60 -31
-146 -42 -190 -12 -44 -21 -84 -20 -90 5 -45 3 -466 -3 -474 -8 -14 -9 -254 0
-280 5 -17 -2 -22 -52 -36 -32 -8 -69 -22 -83 -30 -55 -32 -111 -54 -162 -64
-29 -6 -64 -13 -78 -16 -39 -8 -201 -37 -240 -42 -19 -2 -48 -10 -65 -18 -16
-7 -48 -18 -70 -23 -22 -6 -73 -22 -114 -36 -40 -14 -77 -23 -82 -21 -4 3 -4
16 0 28 7 18 4 28 -14 45 -29 28 -36 73 -23 163 5 41 11 92 13 114 5 61 31
243 55 390 6 33 24 87 41 120 17 33 37 80 45 105 43 150 110 305 143 335 29
25 44 62 65 160 20 91 50 158 118 265 26 41 48 81 48 88 0 6 4 12 8 12 5 0 15
19 23 43 7 23 26 68 41 100 16 31 28 60 28 63 0 4 28 47 62 97 33 50 80 132
102 181 38 84 73 141 126 206 11 14 43 70 70 125 28 55 61 118 75 140 14 22
34 60 46 85 11 25 26 52 34 60 14 16 28 41 112 195 30 55 64 110 75 122 12 13
72 48 135 80 62 31 118 62 124 70 7 7 17 13 23 13 6 0 74 47 150 104 129 97
144 105 205 116 43 8 112 34 201 76 74 36 137 69 140 73 3 5 39 24 81 43 42
20 79 40 83 47 4 6 24 11 45 11 21 0 58 11 82 24 25 12 67 26 94 30 27 5 63
15 80 24 16 10 41 20 55 23 47 12 142 9 168 -5z m497 -176 c-3 -5 -26 -18 -50
-29 -24 -10 -76 -39 -117 -63 -106 -62 -105 -62 -123 -27 -9 17 -15 47 -13 67
l3 37 58 6 c32 4 60 9 63 12 10 10 185 7 179 -3z m-11075 -922 c0 -70 28 -201
45 -214 8 -6 15 -15 15 -19 0 -4 14 -27 30 -52 17 -24 30 -50 30 -57 0 -13
-41 -36 -64 -36 -13 0 -48 35 -60 60 -10 22 -28 52 -53 87 -13 17 -23 39 -23
50 -1 10 -9 43 -20 73 -25 72 -25 162 0 219 11 24 20 48 20 54 0 6 10 21 22
34 l22 23 18 -87 c10 -49 18 -109 18 -135z m2690 48 c8 -2 22 -5 30 -9 25 -9
102 -26 165 -37 84 -14 246 -77 261 -101 3 -5 11 -9 18 -9 7 0 44 -20 82 -45
38 -25 113 -62 167 -83 86 -32 106 -45 165 -102 36 -36 81 -74 98 -85 18 -11
49 -42 70 -70 21 -27 54 -69 73 -91 20 -23 52 -64 71 -90 19 -27 37 -51 40
-54 3 -3 32 -36 65 -75 33 -38 73 -83 89 -100 15 -16 36 -41 45 -55 21 -33
162 -221 179 -238 6 -8 17 -23 23 -34 41 -77 324 -382 483 -519 21 -19 57 -52
80 -75 23 -22 122 -116 221 -209 99 -93 194 -188 212 -210 18 -22 59 -64 92
-93 34 -29 81 -79 106 -111 25 -32 56 -63 68 -70 22 -13 61 -59 155 -183 108
-143 293 -431 363 -567 38 -72 48 -111 30 -111 -4 0 -6 -11 -3 -25 2 -15 11
-25 22 -25 22 0 42 -25 64 -80 10 -25 22 -54 26 -65 5 -11 16 -42 26 -70 9
-27 30 -78 46 -113 15 -35 28 -67 28 -71 0 -7 19 -67 100 -326 15 -49 30 -117
34 -150 3 -33 13 -89 22 -125 30 -117 54 -244 60 -310 3 -36 9 -69 14 -75 13
-18 24 -138 22 -250 -4 -215 -39 -334 -111 -380 -22 -13 -41 -28 -42 -33 -7
-17 -108 -72 -123 -66 -8 3 -23 -7 -35 -25 -12 -16 -43 -43 -69 -59 -26 -16
-72 -51 -102 -79 -30 -27 -68 -60 -84 -74 -90 -76 -330 -334 -376 -403 -19
-29 -55 -77 -80 -106 -55 -65 -192 -222 -217 -248 -10 -10 -72 -77 -138 -148
-185 -198 -322 -343 -389 -410 -34 -33 -79 -80 -102 -105 -43 -46 -133 -129
-205 -189 -23 -19 -63 -54 -89 -77 -26 -24 -52 -43 -57 -43 -6 0 -17 -7 -24
-17 -8 -9 -52 -45 -99 -79 -47 -35 -90 -67 -95 -71 -75 -56 -313 -183 -344
-183 -6 0 -11 -4 -11 -9 0 -10 -179 -94 -280 -130 -104 -38 -146 -54 -155 -62
-6 -4 -26 -10 -45 -12 -19 -3 -107 -20 -195 -40 -149 -33 -248 -50 -370 -62
-27 -3 -76 -8 -107 -11 -51 -6 -58 -4 -63 12 -4 11 -13 33 -20 49 -8 17 -26
80 -40 140 -14 61 -39 148 -54 195 -16 47 -34 112 -40 145 -7 33 -14 71 -17
84 -3 14 3 40 13 58 16 31 16 36 3 61 -9 15 -21 28 -28 28 -7 1 -16 2 -20 3
-4 0 -14 17 -21 36 -9 26 -18 35 -35 35 -13 0 -28 -6 -34 -12 -8 -11 -9 -539
-1 -598 1 -8 16 -55 34 -105 31 -84 51 -165 42 -165 -2 0 -28 -4 -56 -10 -29
-5 -154 -12 -279 -16 -125 -3 -231 -7 -236 -7 -26 -5 -65 224 -66 381 0 49 -6
83 -17 105 -37 70 -77 215 -91 337 -9 76 4 255 28 365 5 28 15 83 20 124 5 41
14 79 20 85 5 5 10 23 10 39 0 16 7 35 15 44 8 8 13 19 10 23 -3 5 6 17 20 26
36 24 13 36 -40 22 -39 -11 -70 -42 -118 -121 -10 -16 -24 -36 -32 -44 -42
-42 -137 -254 -154 -343 -6 -30 -13 -86 -16 -125 -3 -38 -7 -85 -10 -103 -24
-176 -23 -467 0 -552 9 -30 20 -71 26 -90 5 -19 11 -44 13 -55 1 -11 8 -37 15
-58 16 -48 9 -66 -26 -65 -15 0 -32 -1 -38 -3 -36 -10 -448 22 -510 41 -16 5
-68 14 -115 20 -119 16 -189 28 -310 56 -58 13 -130 29 -160 34 -30 6 -75 14
-100 20 -25 6 -62 12 -82 15 -20 2 -77 18 -127 35 -49 16 -95 30 -101 30 -6 0
-27 11 -48 23 -20 13 -55 30 -77 38 -22 7 -47 18 -55 25 -8 6 -33 18 -55 25
-22 8 -53 22 -70 31 -16 10 -38 18 -47 18 -10 0 -18 5 -18 10 0 6 -6 10 -13
10 -7 0 -28 13 -47 28 -19 16 -61 43 -92 61 -32 18 -60 36 -63 42 -4 5 -14 9
-23 9 -17 0 -312 290 -344 339 -10 14 -18 35 -18 46 0 11 -9 28 -20 38 -11 9
-20 23 -20 30 0 7 -12 29 -26 48 -14 19 -39 61 -54 94 -15 34 -34 67 -41 75
-8 8 -27 37 -43 64 l-29 49 24 -7 c13 -4 42 -10 64 -13 22 -3 45 -10 52 -15 7
-6 20 -5 33 2 15 8 25 8 34 1 7 -6 46 -13 87 -17 168 -13 253 -24 263 -34 5
-5 31 -10 57 -10 26 0 60 -5 75 -10 33 -13 37 -10 24 24 -11 29 -10 29 -95 46
-33 6 -71 17 -85 22 -14 6 -81 15 -150 19 -236 16 -374 38 -396 62 -6 6 -16
32 -23 57 -7 25 -20 63 -30 85 -26 56 -56 132 -76 187 -30 85 -97 147 -246
227 -94 50 -267 88 -284 61 -6 -10 2 -12 108 -28 87 -13 200 -68 282 -139 70
-59 86 -83 117 -177 11 -33 32 -85 47 -116 16 -30 31 -70 34 -87 6 -28 4 -33
-13 -33 -11 0 -28 4 -38 9 -9 6 -43 22 -75 37 -32 15 -76 44 -97 65 -20 20
-71 62 -111 93 -41 30 -87 65 -102 77 -15 11 -45 46 -66 78 -21 31 -76 92
-121 136 -46 44 -94 96 -108 115 -15 19 -51 62 -82 95 -76 83 -100 113 -100
125 0 6 -12 34 -27 63 -14 29 -32 81 -39 117 -32 171 -65 321 -78 351 -8 19
-17 60 -21 91 -7 58 -25 86 -46 73 -15 -10 -5 -92 21 -174 12 -35 19 -65 16
-68 -5 -6 -101 -20 -193 -29 l-52 -6 -4 44 -4 43 -1 -46 -2 -47 -112 -6 c-166
-9 -446 -10 -503 -2 -54 8 -188 38 -271 62 -28 7 -64 14 -80 14 -17 0 -34 4
-39 8 -6 5 -37 14 -70 21 -69 15 -292 118 -279 130 19 16 140 60 164 59 14 0
38 3 54 6 126 29 156 37 182 51 17 8 46 17 65 19 47 6 61 11 182 65 26 11 58
21 72 21 13 0 26 4 30 9 3 6 56 26 118 46 61 20 150 51 197 69 47 19 108 42
135 52 28 10 59 23 70 30 19 12 65 26 146 43 20 4 52 18 71 29 20 12 45 22 57
22 34 0 25 30 -23 80 -44 46 -65 98 -81 200 -4 24 -11 51 -15 60 -8 15 -19 74
-40 215 -6 39 -15 90 -20 115 -9 47 -2 77 11 44 6 -14 8 -9 8 18 1 28 -2 36
-13 32 -16 -6 -41 58 -32 81 7 20 36 19 36 -2 0 -9 3 -14 6 -10 12 12 16 374
5 381 -8 5 -11 -41 -11 -158 0 -91 -4 -167 -8 -170 -4 -2 -17 3 -29 12 -19 14
-23 31 -29 99 -8 91 -21 114 -48 84 -16 -17 -16 -23 -2 -67 13 -44 15 -46 16
-19 2 30 2 30 10 5 12 -36 12 -79 1 -61 -7 11 -10 9 -13 -10 -3 -23 -7 -24
-73 -25 -38 -1 -113 -4 -165 -7 -121 -7 -580 -23 -600 -20 -22 2 -70 10 -168
28 -48 8 -123 20 -167 25 -44 5 -100 14 -125 20 -25 7 -61 13 -80 16 -88 11
-176 27 -185 34 -5 4 -49 21 -97 38 -92 33 -105 39 -153 66 -16 9 -54 28 -82
41 -29 14 -53 27 -53 29 0 11 148 44 270 61 14 2 45 6 70 10 25 4 74 7 109 7
39 0 77 6 94 14 16 9 36 13 44 10 9 -4 50 1 92 10 87 18 105 21 183 33 31 5
72 14 90 19 18 6 60 13 93 16 69 7 115 21 166 54 20 12 46 22 58 22 22 0 56
17 126 61 22 14 47 28 57 32 32 12 114 77 128 101 7 14 25 28 41 31 16 4 31
10 34 15 6 10 102 56 185 90 30 12 59 26 65 31 5 5 23 9 40 9 43 0 73 10 79
26 3 7 -2 33 -10 56 -13 35 -16 89 -15 278 0 129 5 267 11 305 11 74 79 267
80 227 0 -13 4 -20 10 -17 6 3 10 33 10 67 0 48 6 71 30 115 17 30 30 61 30
69 0 8 19 34 43 57 23 24 89 92 147 152 131 137 230 203 396 266 46 17 62 27
111 68 6 6 53 34 105 64 135 77 184 108 236 146 46 35 129 81 147 81 22 1 175
69 216 97 65 44 122 71 166 79 21 3 58 17 83 29 25 13 59 26 75 30 17 4 37 12
45 20 8 7 33 15 55 18 67 9 121 23 179 47 l56 22 43 -37 c23 -20 53 -47 67
-59 14 -12 41 -33 60 -46 19 -14 58 -43 87 -66 28 -23 84 -63 125 -89 40 -26
82 -55 93 -65 33 -31 251 -135 299 -144 15 -3 33 -9 39 -14 7 -5 30 -15 52
-22 22 -7 47 -18 55 -24 14 -10 41 -24 110 -54 14 -6 72 -30 130 -52 58 -23
129 -52 158 -66 29 -13 56 -24 60 -24 4 0 18 -9 32 -20 14 -11 31 -20 39 -20
8 0 22 -6 30 -14 22 -18 133 -40 160 -31 21 6 21 8 6 25 -9 10 -33 21 -53 25
-49 9 -92 32 -92 50 0 7 -15 24 -32 36 -18 12 -41 30 -50 38 -32 30 -47 41
-56 41 -5 0 -31 16 -58 35 -27 19 -56 35 -65 35 -20 0 -133 52 -174 79 -16 12
-37 21 -46 21 -9 0 -33 14 -54 30 -21 17 -42 30 -48 30 -5 0 -28 15 -51 33
-41 34 -105 75 -174 112 -37 20 -108 71 -127 91 -5 6 -45 36 -87 68 -68 52
-226 212 -217 220 4 3 19 10 129 59 137 61 199 87 204 87 3 0 13 -14 22 -32 9
-18 23 -38 30 -46 8 -7 14 -16 14 -20 0 -7 15 -24 155 -177 72 -78 208 -204
335 -307 25 -20 82 -72 127 -115 61 -58 108 -91 179 -128 63 -33 102 -60 113
-78 20 -33 50 -45 65 -25 12 17 56 7 56 -12 0 -5 9 -10 20 -10 26 0 25 5 -5
44 -15 20 -56 48 -103 71 -42 21 -99 59 -127 85 -27 25 -84 74 -125 109 -90
75 -170 150 -170 159 0 4 -28 34 -62 67 -93 90 -245 273 -276 331 -15 28 -42
75 -59 105 l-33 54 38 17 c20 9 109 35 197 58 88 22 192 51 230 64 90 30 171
54 213 61 17 3 56 14 85 24 28 10 68 23 88 29 35 12 223 50 284 58 17 2 71 11
120 19 50 8 142 19 205 25 63 6 142 17 175 25 33 8 128 17 210 20 83 4 197 9
255 13 99 7 367 5 400 -2z m-3460 -77 c0 -11 3 -19 8 -19 7 0 18 -19 66 -118
15 -30 40 -70 56 -90 17 -20 30 -40 30 -44 0 -5 17 -34 38 -65 36 -56 64 -89
137 -163 20 -19 35 -40 35 -46 0 -11 -70 -49 -110 -59 -23 -5 -32 4 -95 89
-116 157 -135 185 -135 196 0 5 -4 10 -10 10 -5 0 -10 5 -10 11 0 5 -12 36
-26 67 -28 60 -31 99 -18 230 6 70 7 72 20 46 8 -14 14 -35 14 -45z m951 -417
c20 -31 39 -64 43 -72 21 -46 118 -184 140 -198 16 -10 99 -112 91 -112 -10 0
-125 90 -125 99 0 4 -43 54 -95 110 -92 99 -155 180 -155 198 0 8 40 28 60 32
3 0 21 -25 41 -57z m-515 -182 c8 0 14 -6 14 -13 0 -7 9 -23 20 -35 11 -12 20
-26 20 -32 0 -5 4 -10 10 -10 5 0 34 -21 64 -47 135 -119 219 -189 235 -195 9
-3 25 -15 37 -26 11 -11 40 -29 65 -40 47 -23 91 -50 155 -95 21 -15 55 -39
74 -52 49 -33 208 -109 282 -135 56 -20 118 -60 92 -60 -18 0 -305 116 -431
174 -67 31 -128 56 -136 56 -19 0 -183 85 -218 113 -15 12 -60 43 -101 69
-117 74 -348 253 -348 269 0 12 122 68 138 63 8 -2 20 -4 28 -4z m10714 -1571
c131 -28 219 -36 343 -29 70 4 130 10 133 13 4 3 15 2 25 -4 12 -6 65 -5 161
4 104 11 162 12 213 4 39 -5 138 -10 220 -11 83 0 157 -5 165 -11 8 -5 40 -10
70 -11 112 -3 256 -15 285 -24 76 -24 256 -29 507 -15 85 5 101 3 133 -15 19
-11 39 -19 43 -18 4 1 18 -3 32 -9 55 -24 219 -75 290 -90 41 -9 114 -16 162
-17 55 -1 92 -6 99 -13 7 -7 20 -13 29 -13 9 0 43 -9 76 -19 32 -11 77 -22 99
-25 109 -13 164 -26 202 -46 23 -12 55 -20 70 -18 20 2 28 -1 28 -12 0 -10 14
-17 40 -21 22 -3 53 -11 68 -18 16 -6 45 -11 65 -11 51 0 223 -52 422 -128 36
-13 83 -27 105 -30 40 -5 67 -18 160 -77 28 -18 100 -56 160 -85 61 -28 132
-63 158 -76 27 -13 53 -24 59 -24 5 0 15 -6 22 -12 119 -115 222 -208 229
-208 12 0 96 -62 97 -71 0 -14 116 -208 154 -259 45 -61 60 -85 89 -145 10
-22 27 -56 38 -75 42 -79 76 -158 89 -203 7 -26 16 -50 21 -53 11 -6 -1 -36
-20 -51 -9 -6 -29 -14 -44 -17 -16 -3 -39 -14 -53 -25 l-24 -19 20 -23 c18
-22 21 -22 33 -8 6 9 22 19 35 23 12 4 22 12 22 17 0 5 11 9 25 9 27 0 28 -2
27 -85 -3 -238 -18 -423 -37 -452 -8 -12 -15 -29 -15 -38 0 -9 -18 -40 -40
-69 -22 -29 -40 -56 -40 -60 0 -3 -11 -24 -25 -46 -14 -22 -25 -44 -25 -49 0
-6 -13 -29 -29 -53 -15 -24 -36 -60 -46 -81 -10 -21 -39 -54 -66 -75 -26 -20
-48 -45 -49 -54 0 -27 -154 -201 -387 -437 -62 -63 -113 -118 -113 -123 0 -4
-7 -8 -15 -8 -8 0 -15 -4 -15 -9 0 -6 -22 -21 -49 -35 -27 -13 -64 -38 -82
-55 -17 -17 -36 -31 -41 -31 -8 0 -64 -36 -78 -50 -3 -3 -23 -17 -45 -31 -94
-62 -143 -90 -194 -114 -29 -14 -70 -39 -90 -55 -56 -47 -60 -50 -68 -50 -4 0
-21 -13 -38 -28 -16 -15 -55 -43 -85 -61 -30 -19 -80 -51 -112 -73 -31 -21
-62 -38 -68 -38 -13 0 -73 -40 -78 -52 -2 -4 -8 -8 -13 -8 -5 0 -30 -15 -56
-33 -27 -18 -73 -41 -103 -52 -30 -10 -64 -24 -75 -30 -11 -7 -33 -16 -50 -20
-16 -3 -37 -13 -46 -21 -17 -15 -104 -51 -146 -61 -13 -3 -34 2 -48 11 -13 9
-31 16 -39 16 -8 0 -27 16 -42 35 -22 29 -33 35 -65 35 -46 0 -49 -13 -14 -52
15 -18 34 -28 52 -28 15 -1 38 -9 51 -20 24 -20 22 -40 -4 -40 -8 0 -25 -6
-37 -14 -32 -20 -194 -82 -252 -96 -127 -32 -183 -40 -273 -41 -64 -1 -97 2
-100 10 -2 6 -9 11 -17 11 -7 0 -18 7 -25 15 -24 28 -86 11 -73 -20 7 -19 -65
-26 -347 -30 -135 -2 -423 -7 -640 -10 -397 -6 -507 -2 -735 30 -55 8 -125 21
-155 28 -30 8 -66 14 -79 15 -50 2 -220 24 -296 38 -44 9 -103 19 -132 24 -28
4 -56 10 -60 13 -5 3 -29 8 -53 11 -25 3 -70 13 -100 21 -30 9 -66 18 -80 21
-50 10 -136 36 -167 50 -17 8 -40 14 -52 14 -12 0 -63 11 -114 24 -50 14 -150
37 -221 52 -72 14 -143 32 -159 39 -28 12 -29 14 -33 97 -3 67 -1 88 11 98 10
9 15 9 15 1 0 -6 7 -11 15 -11 23 0 18 17 -13 39 -26 18 -31 18 -49 6 -25 -18
-45 -87 -39 -140 6 -59 1 -64 -42 -53 -20 5 -53 13 -72 18 -19 5 -59 16 -89
24 -29 9 -64 16 -76 16 -13 0 -35 4 -49 10 -15 5 -41 12 -59 14 -41 7 -310 73
-357 88 -19 7 -55 15 -80 19 -59 9 -180 42 -310 84 -58 18 -141 41 -185 50
-44 9 -96 23 -115 31 -19 8 -62 21 -96 29 -61 15 -249 86 -384 145 -41 18
-112 49 -158 68 -45 19 -87 41 -93 48 -5 6 -22 15 -37 19 -15 4 -40 16 -57 28
-16 13 -41 28 -55 35 -14 7 -42 28 -64 47 -21 19 -46 35 -56 35 -23 0 -145 82
-145 97 0 7 37 39 82 72 83 61 120 106 142 172 35 109 53 366 31 461 -5 24
-17 88 -25 143 -9 55 -20 116 -25 135 -23 93 -61 282 -69 341 -5 36 -20 101
-34 145 -14 43 -42 131 -62 194 -36 112 -164 450 -190 500 -21 41 -2 61 116
119 61 30 127 65 147 79 40 27 105 57 197 92 33 12 74 28 92 36 17 7 58 18 90
23 81 15 170 31 223 39 25 4 51 12 59 16 7 5 51 13 97 17 83 9 216 39 251 57
10 6 50 17 88 27 79 18 92 23 189 60 47 18 79 25 99 21 23 -5 36 -1 52 14 14
13 56 27 126 40 57 11 129 25 159 31 52 11 154 37 175 45 6 2 26 14 45 25 19
12 57 27 84 34 45 12 49 11 53 -6 7 -26 18 -24 31 6 7 14 24 30 39 36 16 6 35
16 43 24 21 19 147 65 173 63 12 0 36 7 52 16 17 9 43 16 58 16 15 0 42 7 58
16 17 8 60 22 96 29 36 8 71 19 76 24 6 6 19 11 29 11 9 0 43 12 74 26 30 14
68 24 82 23 15 -1 38 3 52 9 14 6 61 18 105 27 44 10 105 25 135 35 30 10 90
20 132 24 43 4 117 16 165 27 49 11 108 24 133 29 25 5 70 17 100 28 55 19 78
20 160 1z m8498 -332 c6 -7 13 -29 15 -48 2 -20 8 -42 13 -50 4 -8 8 -23 9
-34 0 -30 27 -29 63 3 29 26 32 32 22 57 -11 30 4 52 25 36 5 -4 30 -13 55
-20 65 -19 148 -83 150 -115 0 -6 9 -20 21 -32 18 -19 32 -57 43 -114 2 -8 6
-22 9 -30 9 -24 17 -70 27 -150 5 -41 17 -129 26 -195 9 -66 18 -151 20 -189
2 -45 10 -80 24 -103 11 -19 20 -43 20 -53 0 -24 -20 -27 -224 -34 -167 -6
-330 -23 -491 -52 -16 -3 -100 -10 -185 -15 -85 -5 -201 -17 -257 -25 -56 -9
-107 -13 -113 -9 -6 4 -88 7 -183 7 -156 0 -181 -3 -272 -27 -55 -15 -125 -31
-155 -35 -30 -4 -68 -13 -85 -20 -50 -20 -247 -71 -295 -76 -47 -5 -94 -17
-145 -39 -44 -19 -164 -45 -205 -45 -20 0 -54 -9 -75 -20 -22 -11 -76 -27
-120 -35 -44 -8 -98 -18 -120 -24 -79 -20 -319 -59 -405 -66 -226 -18 -290
-18 -290 -3 0 9 -7 29 -15 44 -8 16 -15 36 -15 44 0 26 -67 180 -87 203 -11
12 -28 43 -37 69 -10 26 -22 50 -27 54 -5 3 -21 26 -35 52 -14 26 -41 69 -60
97 -33 48 -45 83 -24 70 13 -8 222 12 275 27 61 17 130 24 465 48 80 5 161 14
180 19 19 5 66 12 104 15 37 4 71 8 75 11 4 2 30 6 57 9 100 10 162 16 279 26
262 24 344 30 445 36 58 3 110 10 115 14 14 12 86 19 241 25 72 2 149 7 170
10 22 2 111 7 199 9 284 8 438 17 454 26 9 4 35 7 59 6 23 -1 42 0 42 3 0 3
36 5 81 3 66 -3 84 0 100 14 18 16 18 18 3 36 -10 10 -29 18 -44 18 -15 0 -33
7 -40 15 -6 7 -35 27 -64 44 -63 35 -119 89 -112 107 3 7 -2 18 -10 25 -8 6
-13 17 -12 23 1 6 -1 28 -5 48 -6 29 -3 47 13 78 11 22 24 40 29 40 5 0 16 16
25 35 23 47 29 49 60 16 21 -21 29 -42 33 -84 5 -52 8 -56 35 -63 39 -8 46 1
49 56 2 34 -5 59 -29 104 -43 79 -41 91 11 110 85 30 82 30 95 13z m286 -1912
c11 -9 16 -20 12 -33 -5 -14 5 -32 35 -63 40 -43 77 -110 85 -153 2 -11 8 -46
14 -76 9 -50 18 -109 37 -240 5 -42 7 -118 4 -202 -1 -33 -7 -42 -48 -73 -43
-31 -146 -65 -197 -65 -18 0 -46 49 -46 79 0 25 -17 36 -34 21 -10 -7 -12 -24
-9 -50 5 -35 3 -40 -14 -40 -40 0 -90 29 -97 55 -4 14 -4 30 0 36 10 16 -25
79 -44 79 -40 0 -61 -14 -77 -51 -11 -24 -25 -39 -36 -39 -26 0 -107 91 -136
151 -13 30 -31 81 -39 114 -8 33 -23 85 -33 115 -13 39 -16 60 -9 74 17 32 -4
41 -64 28 -29 -7 -102 -14 -163 -16 -60 -3 -137 -8 -170 -11 -157 -17 -317
-37 -380 -50 -38 -8 -110 -16 -160 -20 -263 -17 -644 -83 -950 -165 -22 -6
-62 -15 -90 -20 -27 -5 -59 -11 -70 -13 -11 -3 -74 -12 -140 -21 -66 -9 -163
-24 -215 -33 -116 -19 -457 -21 -568 -3 -3 0 50 93 58 100 3 3 11 23 19 45 8
22 33 70 57 106 l43 66 98 7 c54 4 149 9 212 11 152 5 218 14 232 31 6 8 20
14 30 14 10 0 20 4 23 9 6 9 101 38 196 58 68 14 70 15 135 27 22 4 45 9 50
11 6 1 15 4 20 5 6 1 32 11 58 21 27 11 52 17 57 14 5 -3 24 2 42 11 38 20
249 43 403 44 100 1 186 10 280 29 28 6 77 13 110 17 33 3 96 10 140 16 99 12
138 15 340 23 88 4 178 8 200 9 22 2 98 4 169 6 72 2 144 6 160 10 17 4 126 7
241 7 161 1 215 -2 229 -12z m-9994 -2185 c25 -6 65 -14 90 -19 39 -8 93 -20
265 -61 22 -5 87 -23 145 -40 58 -17 116 -32 130 -34 14 -3 57 -12 95 -21 39
-9 97 -20 130 -25 135 -20 204 -41 266 -82 33 -22 63 -48 66 -57 4 -9 15 -29
26 -45 56 -80 77 -138 77 -211 0 -51 6 -82 20 -110 11 -22 20 -46 20 -55 0 -8
9 -39 20 -68 11 -29 20 -63 20 -77 0 -14 9 -44 19 -68 11 -23 32 -80 47 -126
15 -45 33 -88 39 -95 13 -12 75 -138 75 -151 0 -8 20 -51 75 -165 14 -30 46
-89 71 -130 24 -41 48 -84 53 -95 5 -12 16 -27 26 -35 9 -7 26 -32 37 -54 30
-60 116 -171 188 -246 60 -63 107 -120 180 -219 90 -122 318 -344 472 -459 29
-22 82 -65 118 -97 67 -59 79 -66 251 -151 120 -60 207 -100 264 -121 41 -15
178 -50 205 -52 8 0 56 -7 105 -16 166 -28 328 -42 587 -50 59 -2 122 -8 140
-13 18 -6 64 -16 102 -22 138 -25 262 -82 308 -142 14 -18 47 -55 72 -83 25
-27 46 -57 46 -67 0 -23 27 -48 54 -48 25 0 93 -61 119 -107 17 -31 17 -32 0
-41 -10 -5 -30 -12 -45 -16 -37 -9 -26 -32 19 -43 20 -5 38 -14 40 -20 7 -20
-41 -25 -87 -9 -73 25 -81 -19 -9 -48 21 -9 39 -17 39 -19 0 -2 -21 -26 -47
-54 -27 -28 -64 -68 -83 -90 l-35 -40 -125 -6 c-103 -5 -141 -3 -219 13 -61
13 -133 20 -207 20 -96 0 -322 26 -414 48 -24 6 -153 6 -427 1 -101 -2 -161 2
-223 15 -47 9 -119 19 -160 22 -204 14 -384 41 -415 64 -5 4 -23 10 -40 14
-88 20 -218 87 -269 140 -17 17 -51 46 -76 63 -78 57 -310 264 -310 278 0 1
-39 40 -86 86 -80 78 -182 194 -246 281 -15 20 -44 53 -64 75 -50 53 -88 103
-107 139 -9 17 -31 47 -49 66 -60 65 -188 231 -188 244 0 4 -11 22 -25 40 -14
18 -25 37 -25 42 0 5 -7 16 -16 23 -9 8 -37 45 -63 84 -25 38 -76 113 -113
166 -38 54 -68 101 -68 107 0 12 -53 114 -79 150 -10 15 -22 38 -26 52 -4 14
-34 61 -65 105 -32 44 -68 100 -80 124 -12 24 -45 72 -73 106 -29 34 -68 85
-87 114 -19 28 -47 67 -62 87 -15 20 -31 52 -34 72 -9 47 -68 159 -105 197
-22 23 -29 41 -29 69 0 22 -12 62 -29 95 -40 79 -101 211 -101 219 0 4 -6 19
-14 33 -7 15 -22 51 -31 80 -10 30 -21 59 -24 64 -16 23 -32 88 -45 176 -13
89 -22 124 -52 194 -14 34 -54 147 -54 153 0 5 34 -1 110 -18z m4218 -165 c29
-14 54 -25 58 -25 3 0 42 -17 87 -39 45 -21 97 -44 115 -51 18 -7 36 -18 40
-25 16 -27 191 -95 244 -95 32 0 78 -12 133 -36 17 -7 59 -19 95 -28 36 -8 90
-25 120 -36 30 -12 72 -26 93 -31 21 -5 64 -28 95 -52 68 -50 242 -167 249
-167 6 0 88 -57 127 -88 17 -13 39 -28 50 -33 37 -17 66 -36 89 -57 38 -35
229 -157 292 -186 94 -44 98 -45 135 -51 19 -3 40 -11 46 -16 7 -6 24 -12 39
-15 25 -4 303 -137 385 -184 51 -29 161 -80 172 -80 5 0 35 -12 66 -26 99 -45
116 -52 177 -73 33 -12 116 -50 185 -85 69 -34 141 -69 160 -76 19 -7 69 -28
110 -47 41 -19 80 -36 85 -37 6 -1 37 -15 70 -30 33 -16 74 -32 90 -37 17 -4
55 -17 85 -27 50 -18 79 -30 215 -92 22 -10 58 -24 80 -31 22 -7 45 -16 50
-20 6 -3 51 -19 100 -34 50 -15 101 -31 115 -35 14 -5 44 -12 67 -15 24 -4 61
-16 84 -27 23 -11 62 -23 88 -28 142 -26 223 -42 286 -55 98 -20 242 -37 365
-42 58 -3 138 -8 179 -11 41 -4 119 -3 174 2 75 7 128 6 225 -6 124 -15 237
-16 317 -4 22 4 146 8 276 10 129 1 240 5 246 9 5 3 39 9 74 13 35 3 72 9 84
13 11 4 65 7 120 6 55 -1 109 3 120 8 26 13 385 10 457 -4 32 -6 63 -18 69
-25 6 -8 17 -14 23 -14 6 0 26 -13 44 -29 17 -17 32 -27 32 -24 0 3 24 -19 53
-48 30 -30 52 -59 50 -65 -3 -7 5 -20 16 -31 28 -26 50 -83 44 -115 -3 -18
-14 -30 -34 -37 -16 -5 -32 -17 -35 -26 -3 -8 -15 -15 -26 -15 -10 0 -17 -4
-14 -8 3 -5 -9 -14 -27 -20 -18 -7 -42 -27 -55 -46 -17 -25 -49 -47 -118 -80
-52 -25 -101 -46 -109 -46 -7 0 -15 -5 -17 -10 -3 -11 -34 -17 -140 -27 -38
-3 -68 -9 -68 -13 0 -7 -53 -32 -75 -36 -5 -1 -23 -8 -40 -15 -16 -7 -43 -13
-60 -14 -16 -1 -55 -7 -85 -14 -67 -14 -490 -7 -519 9 -25 13 -34 13 -25 -1 5
-8 -29 -10 -125 -6 -72 3 -131 2 -131 -1 0 -4 -15 -7 -32 -8 -54 -1 -128 -11
-218 -28 -59 -12 -108 -15 -160 -10 -41 3 -142 7 -225 9 -148 3 -272 16 -350
36 -22 6 -60 15 -85 20 -25 6 -87 24 -139 40 -67 21 -119 31 -185 33 -102 4
-186 15 -201 26 -5 4 -24 8 -41 8 -17 0 -66 5 -110 11 -43 6 -97 12 -119 13
-22 1 -59 10 -83 20 -24 10 -59 18 -78 18 -40 0 -236 45 -266 61 -30 16 -339
83 -435 95 -26 3 -65 14 -87 25 -22 10 -65 23 -96 28 -30 5 -78 18 -106 30
-29 11 -54 17 -57 15 -3 -3 -17 2 -31 11 -14 10 -26 14 -26 10 0 -5 -8 -2 -17
6 -21 18 -139 55 -203 64 -55 8 -220 70 -344 129 -50 24 -117 55 -149 70 -32
14 -95 47 -140 74 -45 26 -93 53 -107 59 -85 36 -147 70 -265 148 -44 29 -111
69 -150 90 -38 21 -115 69 -169 108 -55 39 -122 82 -150 95 -98 45 -410 268
-543 387 -48 44 -102 90 -118 102 -17 13 -48 36 -69 53 -22 17 -62 43 -90 60
-88 50 -186 117 -227 155 -38 35 -210 145 -227 145 -5 0 -41 26 -80 58 -111
89 -128 101 -166 117 -20 9 -64 43 -98 78 -35 34 -70 67 -78 72 -168 107 -182
119 -164 132 10 7 32 13 50 13 17 0 50 6 72 14 22 8 62 18 89 22 26 4 95 27
153 51 58 25 116 47 130 51 14 3 39 13 55 23 39 23 33 23 93 -6z m-11737 -67
c-5 -13 -11 -50 -15 -83 -11 -92 -16 -116 -28 -138 -13 -24 -26 -203 -23 -307
2 -41 10 -109 19 -150 8 -41 21 -100 27 -130 6 -30 17 -63 26 -72 23 -25 32
-79 39 -238 4 -80 10 -152 14 -160 4 -8 10 -32 14 -53 4 -21 9 -44 12 -51 4
-9 -21 -12 -108 -9 l-113 3 -8 32 c-13 56 -29 112 -38 133 -10 22 -26 93 -38
166 -9 58 -5 255 9 434 6 77 12 163 14 190 5 73 23 150 44 192 11 21 25 56 32
78 12 36 38 79 95 157 24 33 38 36 26 6z m738 -730 c5 -13 11 -47 15 -76 3
-28 13 -71 22 -95 19 -50 60 -197 80 -283 7 -34 21 -78 31 -98 20 -43 15 -50
-50 -60 -44 -7 -57 2 -57 41 0 12 -6 37 -14 55 -8 18 -22 50 -31 71 -33 76
-44 172 -34 305 11 158 19 189 38 140z m204 -726 c10 -37 21 -82 24 -99 3 -18
8 -33 12 -33 4 0 15 -33 25 -72 22 -88 66 -219 78 -232 4 -6 8 -18 8 -28 0
-10 4 -26 9 -36 5 -9 16 -35 24 -57 13 -36 49 -127 64 -164 4 -9 1 -12 -8 -9
-17 6 -208 381 -234 463 -11 33 -22 62 -25 65 -9 9 -50 97 -50 108 0 6 -11 32
-25 58 -43 81 -34 100 45 103 35 1 35 1 53 -67z m-829 -85 c15 -81 34 -151 53
-197 3 -8 8 -24 10 -35 19 -99 5 -90 -201 130 -50 53 -65 77 -66 100 0 17 -7
43 -15 59 -8 15 -15 31 -15 35 0 3 49 5 109 3 l109 -3 16 -92z m12896 -1836
c0 -9 -31 -23 -95 -41 -22 -6 -49 -15 -60 -20 -46 -21 -238 -75 -240 -67 0 1
-9 19 -19 40 -11 20 -17 40 -14 42 3 3 43 8 89 10 114 5 189 14 262 30 78 17
77 17 77 6z m-325 -336 c44 -9 143 -20 220 -24 77 -5 130 -9 118 -9 -13 -1
-23 -6 -23 -11 0 -5 -17 -12 -37 -16 -21 -4 -92 -22 -158 -40 -66 -18 -149
-35 -185 -36 -73 -4 -173 9 -168 21 10 26 125 139 138 135 8 -2 51 -11 95 -20z"/>
<path d="M9805 13279 c-33 -4 -98 -13 -145 -19 -47 -6 -119 -16 -160 -21 -198
-24 -180 -14 -345 -192 -85 -92 -105 -108 -138 -114 -35 -5 -37 -7 -22 -23 14
-16 14 -21 -7 -55 -13 -20 -50 -69 -83 -108 -34 -40 -67 -88 -75 -107 -7 -19
-22 -48 -33 -63 -17 -25 -18 -41 -14 -160 3 -73 10 -155 15 -183 11 -57 44
-135 66 -156 50 -50 73 -149 79 -333 l2 -50 65 -7 c82 -8 195 -25 282 -41 48
-9 75 -20 95 -40 37 -34 43 -34 43 3 0 35 1 35 120 15 187 -31 265 -47 279
-55 9 -4 45 -14 81 -20 36 -7 71 -17 78 -23 12 -9 70 4 150 34 13 5 30 9 39 9
22 0 119 50 186 98 97 68 222 188 287 275 198 269 189 254 206 330 8 40 20
110 25 156 11 91 3 136 -48 256 -14 33 -32 77 -39 98 -30 80 -109 170 -256
293 -68 56 -103 77 -155 94 -38 13 -75 28 -83 35 -25 20 -90 42 -165 55 -38 6
-89 16 -112 21 -48 10 -131 10 -218 -2z m248 -60 c40 -6 77 -15 83 -20 6 -5
30 -10 55 -12 24 -1 55 -10 69 -19 14 -9 42 -20 63 -23 20 -4 37 -11 37 -16 0
-4 16 -11 36 -15 22 -4 51 -22 78 -48 23 -22 84 -81 134 -129 112 -107 161
-192 208 -364 14 -52 15 -73 6 -140 -18 -127 -37 -202 -61 -231 -12 -15 -46
-63 -76 -107 -29 -44 -65 -91 -79 -104 -14 -14 -26 -30 -26 -37 0 -36 -314
-294 -358 -294 -7 0 -26 -7 -40 -15 -35 -19 -158 -55 -188 -55 -13 0 -32 4
-42 9 -9 6 -62 17 -117 25 -55 9 -111 18 -125 22 -47 10 -145 26 -175 29 -16
2 -49 6 -72 10 -39 7 -43 10 -43 37 0 15 9 63 20 106 30 117 47 251 37 297 -5
22 -11 58 -14 79 l-5 40 25 -17 c32 -21 89 -22 182 -3 153 31 237 75 304 162
40 51 44 62 49 124 7 98 0 116 -56 144 -80 41 -154 43 -357 10 -88 -14 -166
-73 -184 -141 -21 -73 -15 -106 27 -144 39 -37 96 -76 147 -102 l30 -15 -49
-7 c-38 -6 -56 -4 -80 10 -49 28 -76 57 -76 81 0 13 -4 26 -10 29 -5 3 -10 14
-10 24 0 27 -146 313 -180 351 -74 85 -120 143 -120 155 0 10 59 77 166 187
53 54 105 82 154 84 77 3 207 16 235 23 17 5 39 9 50 10 11 0 43 5 70 10 72
13 195 13 278 0z m-932 -463 c59 -72 73 -94 102 -151 6 -11 29 -56 52 -100 24
-44 46 -96 50 -115 4 -19 13 -48 21 -65 50 -118 66 -272 39 -390 -9 -38 -20
-88 -25 -110 -5 -22 -12 -59 -16 -83 -6 -41 -7 -42 -37 -37 -18 2 -45 6 -62 9
-58 7 -103 35 -178 107 -73 72 -76 76 -83 133 -8 67 7 145 35 185 29 42 43 71
32 71 -14 0 -82 -96 -90 -128 -12 -43 -33 -32 -68 33 -45 84 -63 167 -63 285
0 143 30 217 140 340 12 14 31 42 42 63 10 21 25 37 32 35 7 -2 42 -38 77 -82z
m817 -134 l37 -17 0 -66 c0 -57 -4 -72 -30 -110 -34 -50 -69 -83 -105 -100
-14 -6 -37 -17 -51 -25 -58 -30 -99 -28 -176 10 -86 42 -159 94 -168 120 -4
10 -2 28 3 40 6 11 17 37 25 56 17 44 90 86 162 94 28 3 64 9 80 14 46 14 181
4 223 -16z"/>
<path d="M7315 12978 c-3 -18 -5 -60 -4 -93 1 -33 -2 -79 -6 -102 -5 -25 -4
-43 2 -43 5 0 6 -38 2 -92 -12 -160 -19 -518 -10 -518 9 0 22 241 21 380 0 47
2 129 5 183 4 74 2 97 -7 97 -9 0 -10 3 -2 8 13 8 26 212 14 212 -5 0 -12 -15
-15 -32z"/>
<path d="M12281 12144 c-13 -10 -21 -26 -21 -44 0 -16 -5 -32 -11 -35 -7 -5
-8 -25 -3 -59 4 -28 7 -55 6 -61 0 -5 -7 -66 -15 -133 -8 -68 -14 -135 -12
-148 1 -13 -6 -31 -16 -40 -13 -12 -16 -21 -9 -33 4 -9 6 -62 4 -116 -3 -55
-6 -165 -8 -245 -5 -184 -15 -290 -30 -291 -6 -1 -87 -3 -181 -4 -375 -5 -690
-17 -706 -25 -19 -11 -30 -4 -23 14 8 21 -52 140 -87 171 -79 71 -137 102
-286 150 -67 22 -95 27 -157 23 -68 -3 -78 -6 -104 -33 -45 -46 -64 -100 -61
-174 3 -79 26 -129 90 -198 27 -28 49 -58 49 -65 0 -16 87 -93 160 -141 76
-50 155 -60 235 -27 44 18 64 34 99 81 25 32 49 74 55 92 13 38 41 57 92 63
19 2 144 6 279 9 135 3 269 9 298 15 33 6 61 6 71 0 10 -5 58 -7 107 -4 l89 5
13 -28 c9 -17 16 -81 18 -168 3 -77 11 -158 18 -180 8 -22 17 -64 21 -92 4
-29 15 -64 26 -77 10 -13 19 -30 19 -38 0 -8 8 -30 18 -50 26 -50 43 -116 42
-158 -3 -119 0 -143 20 -157 11 -8 20 -20 20 -27 0 -25 53 -129 76 -151 6 -5
25 -31 42 -57 17 -26 41 -61 54 -78 19 -26 20 -32 8 -41 -8 -5 -31 -7 -51 -3
-49 7 -57 -10 -15 -30 50 -23 81 -20 105 10 29 37 26 69 -8 113 -17 21 -35 49
-42 64 -7 15 -15 27 -19 27 -7 0 -48 68 -86 143 -32 63 -25 70 84 98 53 13
104 23 112 22 25 -3 214 37 224 47 6 6 19 10 31 10 26 0 67 28 59 41 -13 21
-90 54 -261 110 -51 16 -95 34 -98 39 -3 5 -31 14 -63 20 -82 17 -123 32 -154
57 -16 12 -37 24 -47 28 -22 7 -23 9 -45 105 -18 80 -30 159 -32 225 -4 110
-14 212 -23 252 -8 28 -8 72 -1 135 5 51 7 109 4 129 -4 20 -2 39 3 42 10 6
421 21 543 20 41 -1 91 -4 111 -8 28 -5 38 -3 42 9 6 15 -26 46 -48 46 -6 0
-29 8 -51 19 -21 10 -53 21 -71 24 -18 4 -74 26 -125 50 -51 25 -111 50 -133
57 -22 7 -47 18 -55 24 -8 7 -33 18 -55 24 -22 7 -61 23 -87 34 l-48 21 6 71
c3 39 10 118 16 176 6 58 11 121 13 140 1 19 5 65 10 101 8 73 -4 91 -44 63z
m94 -628 c126 -53 197 -85 240 -108 22 -12 60 -31 84 -43 31 -16 40 -25 30
-31 -7 -4 -117 -8 -243 -7 l-230 0 4 64 c2 35 3 85 3 112 -2 58 4 59 112 13z
m-1491 -311 c15 -8 36 -15 45 -15 20 -1 102 -44 174 -92 73 -49 109 -119 111
-216 1 -77 -12 -106 -74 -169 -45 -46 -93 -60 -175 -51 -68 8 -219 134 -242
203 -36 106 -36 108 -19 120 21 16 20 25 -4 25 -22 0 -40 -27 -40 -62 -1 -36
-59 80 -60 119 0 44 43 140 67 146 45 12 189 6 217 -8z m1529 -929 c12 -7 50
-16 84 -19 38 -3 69 -11 78 -21 9 -9 23 -16 31 -16 17 0 185 -55 228 -75 l29
-13 -24 -13 c-26 -14 -84 -25 -189 -38 -36 -4 -100 -18 -143 -31 -42 -13 -79
-21 -82 -19 -2 3 -6 40 -8 84 -2 49 -10 93 -20 112 -17 31 -22 63 -12 63 3 0
16 -6 28 -14z"/>
<path d="M10380 10563 c-6 -15 -13 -34 -15 -41 -3 -9 -10 -10 -22 -4 -24 12
-108 29 -228 46 -129 18 -262 11 -368 -19 -92 -26 -265 -87 -313 -110 -18 -8
-35 -15 -38 -15 -7 0 -45 -25 -186 -120 -93 -64 -248 -223 -277 -287 -62 -134
-79 -278 -50 -403 9 -36 21 -90 28 -120 7 -30 16 -62 20 -70 26 -52 51 -119
69 -186 24 -89 44 -118 164 -231 158 -149 227 -174 482 -174 129 -1 168 2 192
15 17 9 42 16 57 16 16 0 25 6 25 16 0 13 -8 15 -47 10 -27 -3 -64 -7 -83 -10
-19 -2 -98 -5 -175 -6 -139 -2 -186 6 -265 43 -90 43 -284 232 -295 289 -10
50 -35 126 -65 198 -71 171 -100 372 -65 457 8 19 15 43 15 52 0 24 47 119 78
158 81 102 264 249 371 299 42 20 110 52 151 72 41 19 82 37 90 38 8 2 35 8
60 13 169 36 216 43 305 44 100 2 154 -3 272 -24 40 -7 60 -15 56 -22 -4 -6 0
-8 10 -4 13 5 17 1 17 -16 4 -199 23 -317 69 -431 16 -39 32 -96 35 -126 4
-30 21 -110 37 -177 16 -67 29 -132 29 -144 0 -23 15 -78 33 -116 5 -11 7 -25
3 -31 -3 -5 1 -18 9 -28 8 -10 15 -26 15 -34 0 -8 20 -35 45 -60 25 -25 47
-58 50 -75 5 -21 16 -35 36 -44 16 -7 29 -16 29 -21 0 -4 -23 -24 -50 -44 -47
-34 -69 -45 -202 -96 -29 -12 -69 -29 -88 -38 -63 -31 -385 -19 -510 20 -68
20 -286 133 -360 186 -92 66 -108 82 -112 116 -2 15 -7 25 -13 24 -14 -4 -17
-36 -4 -60 16 -30 100 -118 112 -118 6 0 24 -11 41 -23 104 -79 150 -105 296
-169 90 -40 357 -70 475 -54 28 4 64 13 80 21 17 7 80 34 141 60 61 25 126 57
145 71 19 14 58 41 87 60 28 18 52 40 52 48 0 7 7 19 15 26 8 7 28 36 45 64
16 29 39 63 51 76 24 29 53 82 87 160 41 98 39 272 -5 380 -6 14 -14 41 -18
60 -8 38 -47 123 -67 145 -29 33 -38 45 -38 53 0 5 -26 36 -57 69 -61 63 -215
169 -343 235 l-74 38 3 39 c2 32 -2 42 -18 51 -19 9 -22 7 -31 -17z m65 -113
c4 -6 11 -7 17 -4 7 5 9 1 5 -9 -4 -12 -1 -17 11 -19 9 0 22 -2 29 -2 7 -1 18
-8 25 -17 7 -9 31 -29 53 -45 22 -16 42 -31 45 -35 3 -3 25 -15 50 -26 67 -31
219 -200 250 -278 24 -59 28 -71 48 -140 38 -128 42 -153 39 -207 -4 -53 -24
-121 -52 -174 -8 -16 -15 -33 -16 -39 0 -5 -25 -44 -55 -85 -29 -41 -61 -90
-71 -107 -9 -18 -24 -33 -34 -33 -19 0 -65 50 -82 90 -7 14 -24 41 -38 60 -32
41 -63 135 -79 240 -7 41 -17 90 -22 108 -5 18 -11 43 -13 55 -12 75 -18 104
-25 122 -4 11 -16 52 -25 90 -10 39 -23 79 -30 90 -7 11 -14 34 -17 50 -3 17
-15 77 -27 135 -13 58 -20 119 -17 135 4 17 7 36 8 43 2 15 14 16 23 2z"/>
<path d="M10066 9964 c-21 -8 -44 -18 -51 -24 -7 -5 -34 -13 -61 -17 -90 -12
-193 -96 -180 -146 6 -22 156 -127 183 -127 8 0 24 -6 36 -14 12 -7 42 -16 67
-19 25 -3 55 -9 65 -12 15 -5 16 -4 6 3 -17 12 -8 17 62 32 80 16 115 32 165
75 97 84 106 186 21 231 -47 24 -127 34 -183 22 -31 -7 -56 -7 -70 -1 -14 7
-33 6 -60 -3z m239 -39 c36 -4 74 -24 85 -44 23 -44 -48 -130 -138 -166 -71
-29 -257 -20 -317 14 -39 22 -105 79 -105 91 0 11 130 70 154 70 13 0 45 9 71
21 33 15 59 19 84 15 20 -3 50 -1 66 4 17 5 41 6 55 3 14 -3 34 -7 45 -8z"/>
<path d="M2978 24163 c-52 -18 -94 -56 -110 -100 -7 -18 -19 -33 -27 -33 -12
0 -12 -2 1 -17 8 -10 18 -36 21 -57 4 -22 14 -47 23 -55 15 -15 15 -13 9 26
l-7 42 69 -25 c48 -18 84 -24 123 -22 51 3 56 5 88 47 39 52 38 83 -3 138 -46
59 -114 80 -187 56z m95 -32 c34 -13 97 -78 97 -100 0 -11 -15 -31 -32 -46
-30 -26 -37 -27 -100 -21 -68 6 -158 41 -158 61 0 13 29 56 50 72 13 11 91 40
112 42 4 1 17 -3 31 -8z"/>
<path d="M3015 23826 c-16 -7 -39 -23 -49 -35 -25 -28 -36 -27 -36 3 0 34 -18
42 -26 12 -3 -14 1 -37 10 -54 9 -17 16 -46 16 -65 0 -22 6 -37 15 -41 8 -3
15 -12 15 -20 0 -8 5 -18 12 -22 8 -5 9 2 5 25 -6 28 -5 30 11 22 46 -27 46
-27 18 -63 -32 -43 -34 -100 -7 -176 18 -49 18 -54 3 -60 -21 -9 -146 -9 -230
-1 -53 5 -62 4 -60 -9 7 -35 174 -46 378 -25 114 12 119 13 144 36 11 9 23 17
27 17 4 0 14 15 23 34 15 32 15 36 -8 88 -21 47 -74 108 -94 108 -4 0 -13 4
-21 9 -12 8 -9 16 17 46 38 42 42 84 12 132 -29 48 -112 67 -175 39z m125 -33
c62 -36 56 -100 -11 -127 -52 -21 -50 -21 -114 19 -78 50 -76 71 10 107 51 22
80 22 115 1z m24 -229 c51 -28 100 -98 94 -135 -5 -34 -48 -59 -112 -66 -91
-9 -117 14 -130 117 -5 35 -2 52 14 78 25 41 68 43 134 6z"/>
<path d="M3208 22285 c-2 -3 19 -28 47 -57 60 -63 77 -111 65 -183 -10 -61
-52 -138 -89 -164 -58 -42 -192 -76 -262 -68 -138 17 -157 33 -119 103 62 119
181 173 284 130 38 -16 47 -27 55 -69 8 -37 31 -49 31 -16 0 29 -45 106 -70
119 -36 20 -145 14 -195 -10 -55 -27 -130 -110 -149 -166 -13 -38 -12 -45 5
-73 14 -23 32 -34 76 -47 71 -21 103 -20 218 8 157 38 203 83 240 235 7 29 10
69 8 90 -4 41 -58 121 -103 153 -30 21 -34 23 -42 15z"/>
<path d="M2832 21658 c-16 -16 -15 -50 3 -74 21 -28 18 -50 -8 -71 -13 -10
-22 -24 -19 -31 5 -17 15 -15 43 9 57 50 60 51 128 24 88 -34 313 -52 385 -30
27 8 59 15 70 15 30 0 48 14 41 32 -11 27 -162 46 -435 54 -90 2 -164 9 -177
16 -26 13 -30 36 -8 44 8 4 15 10 15 15 0 13 -24 11 -38 -3z"/>
<path d="M3050 21316 c-36 -7 -79 -20 -97 -29 -31 -17 -93 -75 -93 -89 0 -4
-5 -19 -12 -35 -6 -15 -12 -32 -12 -37 -4 -41 -112 51 -122 104 -4 16 -11 27
-16 24 -5 -3 -6 -20 -3 -37 5 -22 30 -55 81 -104 41 -39 74 -76 74 -82 0 -6
20 -32 45 -58 49 -50 61 -42 19 13 -15 19 -23 34 -20 34 14 0 51 -23 84 -51
18 -16 41 -29 52 -29 10 0 21 -3 23 -7 7 -12 195 -7 252 6 28 6 61 17 75 23
37 18 90 77 91 102 2 40 -3 90 -11 110 -14 37 -73 88 -139 119 -75 35 -167 43
-271 23z m259 -56 c34 -18 77 -51 97 -72 32 -36 35 -44 30 -86 -6 -59 -42 -90
-132 -116 -58 -17 -77 -18 -174 -8 -102 11 -200 42 -200 64 0 4 -6 8 -13 8 -8
0 -23 10 -35 23 -18 19 -20 28 -12 61 15 69 111 146 182 146 18 0 39 4 46 9 7
4 44 7 81 6 55 -2 79 -8 130 -35z"/>
<path d="M3145 20755 c-38 -19 -78 -35 -89 -35 -32 0 -113 -51 -126 -78 -7
-15 -14 -44 -16 -65 -4 -40 18 -71 81 -113 30 -21 153 -64 180 -64 21 0 19
-20 -2 -21 -60 -2 -245 -55 -328 -94 -45 -21 -96 -77 -85 -94 7 -12 17 -8 52
20 68 55 154 91 270 114 42 8 88 19 103 25 14 5 45 10 68 11 67 1 142 22 142
39 0 12 -15 15 -70 17 -38 1 -86 5 -105 9 -19 4 -39 8 -45 9 -78 10 -204 65
-239 104 -18 19 -18 22 -2 56 19 39 64 71 140 100 43 16 122 61 151 87 19 17
-11 7 -80 -27z"/>
<path d="M2750 20155 c0 -22 32 -35 117 -46 126 -16 319 -56 303 -62 -28 -11
-295 -37 -371 -37 -95 0 -136 -8 -144 -28 -7 -20 11 -31 44 -26 14 3 92 8 172
13 80 4 150 11 156 14 5 3 57 11 115 16 137 13 261 51 256 79 -2 12 -24 15
-118 17 -63 1 -144 7 -180 14 -36 6 -108 16 -160 21 -109 11 -148 19 -156 31
-9 15 -34 10 -34 -6z"/>
<path d="M2650 18808 c0 -70 33 -173 75 -239 46 -69 53 -89 35 -89 -17 0 -60
-51 -60 -71 0 -25 15 -24 53 5 44 32 77 39 85 18 7 -19 43 -50 82 -70 30 -16
167 -17 254 -1 62 11 139 49 189 94 24 21 27 28 17 40 -10 12 -47 15 -199 14
-102 0 -222 -4 -266 -8 -95 -9 -100 -6 -172 102 -35 53 -48 84 -60 147 -15 76
-33 107 -33 58z m614 -347 c11 -17 -47 -48 -99 -55 -172 -21 -244 -15 -280 24
-16 18 -16 19 6 25 13 3 65 6 114 8 50 1 127 3 172 5 45 1 84 -2 87 -7z"/>
<path d="M1393 18493 c-13 -3 -382 -25 -483 -28 -52 -2 -113 -6 -135 -10 -126
-18 -186 -24 -232 -25 -48 0 -53 -2 -53 -23 0 -22 3 -22 89 -20 50 1 98 6 109
12 11 6 32 10 48 9 51 -2 328 16 404 27 20 2 116 7 215 9 98 3 183 10 188 15
5 5 7 16 4 25 -5 12 -21 15 -76 13 -39 -1 -74 -3 -78 -4z"/>
<path d="M2959 18314 c-52 -16 -117 -71 -148 -128 -26 -46 -22 -64 24 -94 23
-14 35 -30 35 -44 0 -20 -5 -17 -43 20 -42 41 -57 50 -57 34 0 -20 114 -144
148 -161 59 -30 232 -45 255 -22 6 6 18 11 27 11 9 0 27 11 40 25 13 14 29 25
36 25 33 0 47 95 25 163 -7 21 -36 57 -73 91 -80 75 -70 70 -198 91 -14 2 -46
-3 -71 -11z m136 -39 c42 -5 58 -14 98 -53 26 -25 47 -52 47 -58 0 -7 6 -14
14 -17 17 -7 29 -67 19 -95 -11 -28 -82 -78 -130 -91 -58 -16 -194 2 -233 30
-30 23 -39 39 -20 39 23 0 7 46 -27 77 l-37 34 18 34 c31 56 138 120 186 110
8 -2 38 -6 65 -10z"/>
<path d="M1665 18176 c-11 -7 -41 -25 -67 -39 -45 -25 -75 -49 -142 -113 -18
-17 -75 -60 -127 -95 -51 -35 -102 -74 -112 -86 l-19 -23 -58 62 c-76 82 -107
121 -152 188 -44 66 -92 114 -108 108 -11 -3 0 -18 60 -85 11 -12 20 -25 20
-28 0 -13 66 -103 124 -170 96 -109 90 -97 72 -158 l-16 -54 -58 -17 c-32 -9
-68 -16 -81 -16 -12 0 -30 -4 -39 -9 -9 -5 -55 -12 -102 -16 -113 -10 -118
-10 -167 -24 -55 -15 -83 -45 -80 -85 3 -36 21 -38 25 -2 6 46 29 54 177 62
50 2 115 11 145 18 30 8 82 17 115 21 33 5 69 14 80 21 11 7 55 20 99 29 43 8
87 20 98 26 10 6 24 8 31 6 7 -2 20 0 29 4 9 5 38 11 64 14 53 5 70 16 60 40
-5 13 -13 16 -34 11 -15 -3 -49 -9 -77 -12 -27 -4 -63 -13 -79 -21 -35 -18
-64 -11 -101 22 l-28 26 34 35 c18 19 37 34 41 34 5 0 19 10 32 23 13 12 36
30 52 39 57 34 69 44 126 97 54 51 120 101 133 101 3 0 11 5 18 10 7 6 23 18
36 28 14 11 21 24 17 30 -9 15 -17 15 -41 -2z"/>
<path d="M2919 17774 c-28 -61 -42 -163 -37 -254 6 -101 41 -177 103 -221 25
-18 45 -39 45 -47 0 -21 25 -8 28 16 2 14 -6 27 -25 39 -33 21 -45 35 -78 88
-55 91 -46 325 14 389 23 24 19 36 -11 36 -13 0 -26 -15 -39 -46z"/>
<path d="M4494 17761 c-103 -17 -177 -51 -191 -88 -15 -38 10 -66 87 -96 41
-16 94 -38 118 -50 l42 -22 -102 -11 c-153 -17 -208 -32 -241 -65 -38 -39 -33
-69 16 -92 21 -9 50 -19 66 -21 15 -2 32 -6 37 -9 6 -3 28 -8 49 -11 69 -8
233 -44 252 -54 33 -19 -36 -26 -112 -12 -38 7 -137 15 -219 16 -163 3 -196
-5 -196 -52 0 -24 25 -34 32 -13 5 15 300 24 326 10 11 -6 53 -11 93 -12 83
-2 280 -17 322 -25 24 -5 27 -3 27 20 0 20 -6 27 -27 32 -39 9 -101 29 -148
49 -62 27 -168 53 -317 80 -75 14 -149 30 -164 35 -23 9 -25 13 -13 24 37 34
131 51 289 51 136 0 163 -3 222 -23 71 -25 88 -23 88 9 0 22 -10 27 -135 65
-49 14 -94 30 -100 34 -5 4 -37 17 -70 30 -113 43 -185 79 -185 92 0 21 50 37
171 57 198 33 203 33 247 16 22 -9 57 -15 78 -13 32 2 40 7 42 26 2 12 0 22
-5 23 -4 0 -19 3 -33 5 -78 14 -252 12 -346 -5z"/>
<path d="M2534 17543 c-14 -54 -10 -217 6 -243 8 -14 15 -27 15 -30 1 -3 13
-31 28 -64 15 -32 27 -62 27 -67 0 -5 -35 -9 -78 -9 -73 0 -122 -15 -122 -39
0 -4 53 -8 117 -10 114 -2 143 -9 143 -36 0 -7 7 -16 16 -19 24 -9 26 -8 14
13 -13 26 -7 29 85 35 168 12 498 67 545 91 14 7 71 20 128 29 116 19 192 50
192 78 0 25 -29 23 -87 -6 -27 -14 -83 -29 -129 -35 -44 -7 -89 -14 -100 -16
-10 -3 -57 -14 -104 -26 -47 -11 -100 -25 -119 -31 -32 -10 -141 -21 -333 -34
-87 -6 -128 3 -128 29 0 6 -21 54 -46 105 l-46 93 4 109 c2 83 0 110 -9 110
-7 0 -16 -12 -19 -27z"/>
<path d="M1346 17442 c5 -5 28 -14 51 -22 62 -19 82 -63 84 -185 3 -135 -70
-207 -211 -209 -83 -1 -125 13 -154 51 -16 21 -16 30 -6 74 14 58 25 67 51 43
24 -22 25 -4 1 27 -25 30 -45 21 -71 -33 -43 -90 -15 -161 76 -192 56 -19 100
-20 172 -3 43 10 64 22 107 64 63 62 76 100 73 211 -3 93 -25 142 -75 166 -35
16 -116 23 -98 8z"/>
<path d="M1502 17059 c2 -7 22 -23 44 -35 45 -25 84 -86 86 -136 2 -48 -40
-107 -122 -173 -47 -37 -90 -62 -132 -75 -53 -17 -68 -28 -96 -66 -24 -33 -32
-53 -30 -76 3 -29 7 -33 63 -48 59 -16 233 -20 311 -6 82 14 151 67 139 106
-10 31 -102 71 -199 84 l-80 12 56 44 c66 53 128 142 128 185 0 40 -22 99 -45
125 -37 41 -132 87 -123 59z m138 -481 c81 -26 88 -32 66 -56 -27 -31 -120
-45 -258 -40 -129 5 -158 11 -158 33 0 23 31 48 43 36 15 -15 27 -14 21 3 -7
19 8 26 64 34 100 14 156 12 222 -10z"/>
<path d="M4428 17029 c-7 -5 -22 -9 -34 -9 -56 0 -139 -75 -174 -157 -12 -29
-25 -53 -28 -53 -3 0 -14 7 -24 17 -28 25 -35 7 -10 -27 19 -25 21 -37 16 -85
-6 -48 -3 -61 15 -85 11 -16 21 -36 21 -44 0 -8 5 -18 10 -21 18 -11 21 22 6
60 -17 39 -20 82 -10 109 5 12 21 7 92 -30 105 -54 151 -66 261 -65 82 1 86 2
118 33 39 37 73 103 73 140 0 61 -60 144 -140 194 -37 23 -57 29 -112 30 -36
0 -72 -3 -80 -7z m148 -45 c43 -20 118 -96 134 -134 24 -57 -39 -147 -105
-152 -41 -2 -165 2 -191 6 -24 5 -165 64 -176 75 -4 3 -2 26 4 50 12 46 82
131 109 131 8 0 20 5 25 10 9 9 77 22 152 29 8 0 29 -6 48 -15z"/>
<path d="M4610 16561 c0 -5 15 -18 33 -30 57 -35 71 -68 71 -166 0 -52 -5 -78
-19 -103 -23 -39 -96 -92 -128 -92 -12 0 -44 -7 -72 -15 -40 -12 -60 -13 -102
-5 -69 15 -158 76 -200 139 -22 33 -39 48 -48 44 -18 -6 -18 -3 0 -44 18 -41
98 -125 151 -158 101 -62 338 -20 409 73 41 54 58 110 52 175 -6 85 -39 147
-90 171 -45 22 -57 24 -57 11z"/>
<path d="M1320 16257 c0 -26 24 -68 59 -101 17 -17 31 -33 31 -37 0 -5 -17
-13 -38 -19 -47 -12 -100 -54 -82 -65 6 -4 22 -3 33 2 33 15 89 34 116 39 14
3 27 7 31 9 3 2 78 7 167 10 200 9 277 23 281 51 3 19 -1 19 -90 12 -281 -23
-363 -26 -388 -13 -28 15 -91 79 -108 110 -10 18 -11 18 -12 2z"/>
<path d="M4795 16124 c-42 -9 -100 -28 -112 -37 -7 -5 -13 -20 -13 -33 0 -21
5 -24 43 -24 23 -1 60 -7 82 -15 54 -20 62 -19 71 7 4 15 1 25 -12 35 -10 7
-18 25 -19 40 0 28 -8 33 -40 27z"/>
<path d="M1524 15863 c-29 -74 -38 -104 -53 -173 l-17 -75 -104 -3 c-57 -1
-109 -7 -116 -13 -8 -7 -13 -6 -16 2 -5 16 -75 3 -75 -15 0 -9 9 -11 31 -7 16
4 64 3 105 -1 42 -5 99 -8 127 -9 l52 0 4 -56 c3 -39 10 -60 23 -70 27 -19 42
-1 26 30 -7 13 -11 41 -9 63 3 43 -9 37 127 59 19 3 40 9 45 14 6 4 38 13 71
21 32 7 66 16 75 20 8 5 49 20 91 35 85 29 145 74 135 100 -5 15 -7 15 -23 -1
-19 -18 -110 -64 -129 -64 -7 0 -31 -9 -55 -20 -24 -11 -56 -20 -70 -20 -15 0
-32 -7 -39 -15 -7 -9 -15 -14 -17 -11 -2 2 -36 -5 -76 -15 -40 -10 -87 -19
-105 -19 l-33 0 5 48 c3 26 12 67 21 91 8 24 17 53 19 65 2 12 5 26 6 31 9 40
-11 46 -26 8z"/>
<path d="M4687 15836 c-32 -13 -68 -33 -79 -43 -19 -17 -108 -193 -108 -213 0
-18 -23 -59 -35 -64 -22 -8 -108 41 -152 86 -42 43 -68 108 -44 108 6 0 11 7
11 15 0 18 -24 20 -38 2 -24 -28 -24 -66 -2 -109 32 -63 140 -148 186 -148 13
0 26 -4 29 -10 3 -5 10 -10 15 -10 9 0 70 86 70 98 0 4 16 45 35 92 48 116 60
127 171 160 39 12 43 11 90 -22 61 -42 109 -133 117 -221 9 -95 28 -93 35 4
10 136 -91 282 -206 295 -25 3 -56 -3 -95 -20z"/>
<path d="M4757 15694 c-8 -8 25 -44 40 -44 21 0 24 -18 8 -62 -8 -24 -15 -50
-15 -59 0 -19 -84 -112 -125 -139 -17 -11 -47 -20 -67 -20 -32 0 -106 -21
-173 -50 -11 -5 -45 -14 -75 -21 -30 -7 -79 -23 -110 -36 -30 -13 -66 -29 -80
-34 -14 -6 -32 -15 -40 -20 -8 -5 -26 -14 -40 -20 -14 -6 -32 -15 -40 -20 -8
-5 -48 -25 -88 -45 -40 -19 -71 -41 -69 -47 6 -19 65 -26 111 -12 24 8 66 16
94 19 47 5 84 16 127 36 64 30 139 60 152 60 7 0 25 7 38 16 23 15 25 15 25
-1 0 -41 30 -80 76 -99 39 -16 60 -18 136 -12 105 8 137 19 211 75 88 67 99
119 34 160 -34 21 -111 42 -159 43 -38 1 -35 11 13 50 52 42 90 115 96 189 5
48 3 59 -16 78 -20 20 -51 28 -64 15z m29 -374 c28 -6 66 -23 84 -38 l33 -28
-45 -42 c-66 -63 -78 -70 -153 -83 -80 -14 -175 -6 -210 17 -35 23 -35 75 1
99 14 9 31 15 37 12 17 -6 32 -3 29 6 -3 10 39 46 54 47 6 0 18 7 25 16 14 17
43 16 145 -6z m-337 -53 c-19 -19 -56 -42 -84 -51 -27 -10 -68 -26 -91 -36
-40 -18 -201 -60 -230 -60 -25 0 -6 18 25 25 16 3 49 19 73 35 24 16 54 31 68
33 30 6 63 18 70 26 6 8 73 31 104 37 13 2 39 10 57 18 19 8 36 13 38 10 2 -2
-11 -19 -30 -37z"/>
<path d="M2952 15588 c-42 -54 -59 -168 -29 -206 5 -7 7 -15 4 -18 -16 -16 82
-167 144 -222 29 -26 30 -29 15 -44 -34 -34 -5 -102 47 -112 12 -2 47 -9 77
-15 145 -29 338 9 420 81 57 50 74 80 81 136 9 82 -2 105 -99 197 -54 51 -54
32 1 -37 57 -72 67 -93 67 -143 0 -54 -30 -93 -112 -145 -111 -72 -322 -81
-445 -18 l-22 11 22 29 c20 27 27 29 63 25 36 -4 45 0 74 29 39 40 67 43 133
14 43 -19 65 -39 93 -86 19 -30 26 -9 11 28 -19 45 -65 82 -129 104 l-52 17
91 87 c103 99 177 141 259 148 47 4 56 2 74 -19 31 -37 100 -185 100 -215 0
-36 -35 -81 -78 -102 -44 -21 -53 -42 -19 -42 25 0 55 13 93 40 19 13 34 42
40 76 1 6 5 21 8 32 8 24 -24 106 -63 166 -14 21 -32 49 -39 62 -20 36 -80 62
-122 53 -67 -14 -106 -26 -130 -39 -58 -31 -212 -166 -255 -224 -11 -14 -43
-38 -72 -53 l-53 -26 -36 19 c-69 37 -133 139 -155 249 -10 50 6 113 37 141
12 12 20 25 17 28 -11 11 -50 6 -61 -6z"/>
<path d="M3674 14975 c63 -65 72 -92 52 -153 -11 -31 -31 -62 -54 -83 -34 -32
-43 -34 -119 -39 l-83 -5 0 28 c0 35 -20 32 -38 -6 -9 -19 -23 -28 -50 -33
-20 -4 -41 -9 -47 -12 -5 -3 -18 -7 -30 -8 -35 -5 -107 -22 -176 -42 -36 -11
-84 -22 -107 -26 -23 -3 -50 -9 -60 -14 -9 -5 -44 -14 -77 -21 -33 -7 -73 -16
-90 -21 -16 -5 -50 -14 -75 -21 -101 -26 -110 -30 -110 -49 0 -14 10 -21 36
-26 43 -8 250 2 349 17 74 12 259 54 274 63 4 3 33 12 62 20 30 8 63 18 75 21
16 5 26 -2 47 -32 22 -32 38 -42 85 -55 117 -34 215 -29 297 14 92 48 107 88
53 142 -28 27 -46 35 -110 46 -74 12 -91 21 -68 35 16 10 51 97 56 140 7 52
-19 101 -71 137 -61 41 -71 33 -21 -17z m92 -336 c57 -10 114 -44 114 -68 0
-17 -77 -59 -120 -67 -70 -11 -165 -5 -207 14 -49 23 -83 45 -83 55 0 7 103
57 128 61 7 1 18 8 24 14 12 12 21 12 144 -9z m-348 -16 c-2 -13 -23 -22 -73
-35 -39 -9 -106 -28 -150 -43 -81 -27 -209 -45 -300 -44 l-50 1 75 24 c41 13
102 29 135 35 33 5 85 18 115 26 78 23 201 51 228 52 17 1 23 -4 20 -16z"/>
<path d="M5045 14928 c-33 -12 -69 -24 -80 -28 -11 -4 -36 -13 -55 -20 -19 -7
-64 -19 -100 -26 -74 -16 -75 -17 -113 -33 -16 -6 -50 -18 -77 -27 -26 -9 -51
-23 -54 -32 -3 -10 -9 -23 -12 -29 -9 -21 20 -15 34 7 7 12 23 20 38 20 15 0
61 11 103 24 42 14 105 32 141 41 36 9 92 27 125 40 33 13 76 26 95 30 43 9
60 22 53 41 -7 18 -25 17 -98 -8z"/>
<path d="M5096 14482 c-27 -20 -56 -41 -65 -47 -40 -26 -133 -104 -203 -171
-42 -41 -80 -74 -84 -74 -8 0 -64 59 -111 118 -36 45 -51 108 -34 140 15 28
-7 42 -26 16 -10 -14 -13 -34 -8 -74 7 -60 38 -112 112 -190 37 -38 43 -50 38
-74 -3 -16 -8 -32 -11 -35 -3 -3 -58 -7 -122 -8 -64 -1 -120 -2 -124 -3 -18
-1 -6 -29 14 -36 19 -6 196 -8 225 -3 21 4 33 -2 33 -18 0 -15 1 -15 13 -1 7
9 47 23 97 32 130 25 360 143 360 186 0 13 -7 20 -20 20 -11 0 -20 -6 -20 -14
0 -8 -19 -21 -41 -30 -23 -9 -60 -30 -83 -45 -22 -16 -52 -31 -66 -35 -14 -4
-34 -11 -45 -16 -32 -13 -111 -30 -144 -30 -29 0 -30 2 -24 33 3 17 11 34 17
36 6 2 43 36 81 76 39 40 88 85 110 101 22 16 42 31 45 34 3 3 40 31 82 64 50
37 75 63 71 72 -7 20 -12 18 -67 -24z"/>
<path d="M3908 14375 c-1 -2 -37 -6 -78 -9 -93 -6 -210 -52 -222 -87 -15 -40
-2 -52 26 -24 14 14 34 25 45 25 11 0 37 10 58 23 36 21 49 22 216 22 129 0
177 3 177 12 0 13 -52 32 -90 32 -14 0 -48 2 -77 5 -28 2 -53 3 -55 1z"/>
<path d="M4057 14071 c-4 -18 -134 -111 -155 -111 -8 0 -131 -49 -218 -86 -12
-5 -24 52 -29 133 -3 46 -10 63 -28 63 -14 0 -12 -118 3 -205 5 -30 5 -54 -1
-60 -5 -5 -9 -16 -9 -25 -1 -8 -12 -28 -25 -45 l-24 -29 -128 -3 c-87 -2 -129
-7 -135 -16 -23 -37 243 -41 447 -6 250 42 234 39 375 80 89 26 108 40 85 59
-12 10 -21 10 -38 2 -30 -14 -114 -40 -160 -48 -20 -3 -40 -10 -43 -15 -3 -5
-25 -9 -49 -9 -24 0 -55 -4 -69 -10 -14 -5 -74 -12 -133 -16 -100 -7 -107 -6
-94 9 7 10 22 17 33 17 14 0 18 5 13 18 -6 21 29 72 49 72 7 0 37 13 67 28 30
15 80 38 111 51 32 13 62 29 69 37 6 8 19 14 28 14 24 0 94 74 89 96 -4 25
-24 29 -31 5z"/>
<path d="M2015 13255 c11 -9 40 -27 65 -40 70 -35 85 -58 83 -119 -1 -28 -7
-60 -12 -71 -5 -11 -14 -34 -21 -52 -7 -18 -34 -53 -62 -79 -39 -36 -54 -45
-71 -39 -48 14 -170 17 -249 5 -46 -7 -93 -14 -105 -15 -27 -4 -158 -70 -195
-99 -27 -21 -39 -69 -15 -65 6 1 24 -4 39 -11 22 -11 44 -11 110 -2 123 17
151 22 173 32 11 5 41 11 68 15 26 3 77 22 115 40 79 41 91 42 126 14 21 -17
26 -18 26 -5 0 9 -9 25 -20 36 l-21 21 56 62 c59 66 81 119 92 213 5 45 2 56
-20 86 -29 37 -95 75 -148 84 -33 5 -33 5 -14 -11z m-63 -433 c7 -7 -1 -16
-28 -30 -35 -17 -70 -28 -204 -62 -84 -21 -236 -34 -245 -21 -6 10 38 42 100
74 43 21 98 34 215 51 46 6 151 -1 162 -12z"/>
<path d="M4594 13125 c-10 -41 4 -104 33 -142 29 -38 78 -67 99 -59 8 3 14 2
14 -3 0 -5 -13 -11 -29 -14 -36 -8 -61 -32 -61 -60 l1 -22 18 23 c11 12 25 22
31 22 7 0 26 6 43 14 40 18 187 57 247 65 57 8 89 25 74 41 -8 8 -41 8 -120 0
-60 -6 -138 -13 -174 -17 l-65 -5 -44 47 c-36 40 -43 52 -38 79 8 54 -16 81
-29 31z"/>
<path d="M4810 12800 c-30 -11 -63 -24 -74 -30 -13 -9 -26 -8 -47 1 -39 15
-48 5 -21 -24 17 -18 19 -26 10 -35 -8 -8 -3 -27 22 -74 41 -76 71 -119 80
-113 16 10 -9 85 -38 121 -58 70 -37 91 57 58 93 -34 246 6 225 59 -9 26 -77
57 -121 57 -21 -1 -63 -9 -93 -20z"/>
<path d="M1852 12561 c-8 -4 -12 -19 -10 -32 2 -19 25 -35 109 -79 137 -71
189 -102 189 -111 0 -12 -50 -27 -120 -35 -25 -3 -56 -9 -70 -14 -14 -5 -50
-12 -80 -15 -116 -13 -242 -39 -265 -56 -5 -4 -30 -10 -55 -13 -25 -4 -54 -11
-65 -15 -11 -5 -40 -14 -64 -21 -23 -6 -50 -14 -59 -17 -12 -5 -14 -1 -10 21
l5 27 -31 -35 c-23 -25 -49 -39 -92 -51 -32 -9 -77 -23 -99 -32 -22 -8 -60
-23 -85 -32 -63 -23 -70 -29 -70 -57 0 -26 14 -32 27 -11 4 8 35 22 68 32 33
10 69 24 80 32 11 7 32 13 47 13 15 0 29 4 32 9 9 15 68 8 76 -9 7 -14 38
-135 43 -169 2 -14 -79 -46 -198 -76 -33 -9 -69 -20 -80 -25 -26 -12 -108 -34
-118 -32 -12 3 -47 -37 -47 -53 0 -15 21 -20 33 -8 10 10 137 54 172 60 17 2
39 8 50 13 30 13 167 61 192 67 15 4 25 -2 34 -18 16 -30 104 -145 142 -184
15 -16 37 -46 47 -65 37 -67 60 -87 60 -52 0 21 -64 132 -85 148 -8 6 -15 14
-15 18 0 4 -19 32 -42 63 -73 95 -77 109 -32 117 11 2 94 30 185 61 90 31 182
61 204 66 22 5 64 19 93 29 29 11 87 27 130 35 42 9 84 19 92 22 8 3 17 7 20
8 85 24 130 42 130 52 0 17 -3 17 -96 -7 -43 -11 -92 -23 -108 -26 -16 -3 -32
-7 -36 -9 -3 -2 -17 -6 -31 -8 -39 -8 -109 -27 -184 -51 -38 -12 -97 -31 -130
-41 -33 -10 -85 -26 -115 -36 -153 -49 -199 -61 -212 -56 -9 3 -23 34 -32 69
-27 95 -30 123 -14 134 7 6 65 23 128 39 63 15 136 36 163 46 26 11 66 20 90
22 23 2 49 7 57 11 8 3 47 11 85 16 39 6 77 12 85 14 8 2 33 6 55 10 85 15
166 40 177 54 11 12 7 19 -21 41 -58 44 -145 93 -241 133 -60 26 -69 32 -72
54 -2 17 -7 21 -16 15z"/>
<path d="M5040 12545 c0 -3 6 -14 12 -25 17 -26 3 -48 -48 -77 -53 -31 -75
-28 -99 10 -11 17 -28 33 -37 35 -16 3 -16 1 -2 -28 25 -50 14 -60 -63 -60
-71 0 -150 19 -191 46 -35 23 -45 4 -17 -32 32 -41 112 -59 231 -51 93 5 103
0 118 -65 7 -29 66 -98 85 -98 20 0 11 35 -18 63 -30 30 -60 109 -43 115 6 2
35 21 66 43 45 32 56 45 56 68 0 20 -8 34 -25 45 -14 9 -25 14 -25 11z"/>
<path d="M3459 12053 c-8 -56 33 -165 79 -216 20 -21 23 -30 14 -39 -18 -18
-15 -48 6 -48 10 0 22 4 28 9 16 16 123 31 182 25 35 -3 89 2 142 13 72 15 85
21 85 38 0 22 4 22 -264 7 -155 -9 -169 -4 -210 81 -16 34 -32 79 -36 100 -6
32 -23 51 -26 30z"/>
<path d="M3740 11713 c-113 -41 -174 -105 -167 -172 4 -36 75 -115 92 -101 17
13 91 -4 86 -21 -3 -8 -7 -51 -11 -96 -3 -45 -9 -86 -13 -89 -4 -4 -26 -1 -48
6 -46 16 -139 99 -139 125 0 9 -4 13 -10 10 -23 -14 -9 -62 30 -103 23 -23 46
-42 52 -42 6 0 19 -7 28 -15 9 -8 33 -18 55 -23 31 -6 40 -14 49 -39 6 -18 19
-40 28 -49 16 -16 18 -16 42 0 14 9 26 24 26 33 0 13 -3 14 -12 5 -18 -18 -35
-14 -41 10 -7 26 7 38 45 38 39 0 128 42 157 74 33 36 20 44 -22 12 -37 -28
-154 -63 -179 -53 -14 5 -16 18 -12 79 8 132 12 138 97 138 74 0 129 38 141
96 19 87 -177 213 -274 177z m140 -63 c14 -8 34 -20 45 -26 33 -18 58 -59 50
-83 -13 -41 -48 -53 -170 -59 l-115 -5 -35 39 c-19 21 -35 47 -35 59 0 33 49
71 120 93 68 20 81 19 140 -18z"/>
<path d="M4782 11647 c-24 -17 -57 -55 -74 -85 -26 -47 -29 -57 -19 -79 13
-28 9 -39 -11 -29 -47 24 -63 39 -83 75 -22 37 -22 42 -7 50 19 11 15 18 -13
23 -18 3 -20 -2 -20 -49 1 -44 6 -58 30 -84 33 -34 111 -73 132 -65 8 4 13 24
13 58 1 72 29 133 73 154 46 22 85 12 93 -23 7 -27 -11 -119 -28 -140 -11 -14
-4 -43 11 -43 16 0 55 111 54 155 -1 68 -17 87 -88 108 -13 4 -34 -5 -63 -26z"/>
<path d="M4876 11390 c-24 -22 -47 -40 -52 -40 -5 0 -27 -20 -50 -44 l-41 -45
-27 28 c-15 15 -26 39 -26 53 0 34 -14 43 -34 23 -17 -17 -13 -35 17 -78 10
-16 18 -29 16 -30 -2 -1 -22 -11 -44 -22 -32 -16 -42 -28 -49 -58 -15 -58 5
-66 39 -17 50 72 79 75 134 14 36 -40 62 -37 31 4 -20 25 -20 26 -3 33 10 3
63 7 118 8 117 1 170 11 170 31 0 12 -24 14 -137 11 -145 -3 -162 3 -111 36
15 10 41 30 57 46 17 15 35 27 40 27 18 0 45 32 39 46 -9 25 -42 15 -87 -26z"/>
<path d="M4900 11121 c-47 -8 -156 -58 -184 -87 -16 -16 -19 -15 -46 17 -21
25 -31 31 -40 23 -8 -8 -3 -22 22 -54 53 -69 109 -94 213 -94 107 0 195 49
195 110 0 26 -8 38 -42 63 -23 17 -49 30 -57 30 -9 -1 -36 -5 -61 -8z m99 -53
c12 -7 21 -19 21 -27 0 -18 -38 -51 -60 -51 -9 0 -20 -4 -26 -10 -5 -5 -32
-10 -59 -11 -133 -5 -153 32 -47 85 72 36 129 41 171 14z"/>
<path d="M4925 10863 c-16 -9 -42 -26 -56 -40 -22 -20 -27 -22 -32 -9 -9 23
-27 19 -27 -5 0 -23 74 -149 95 -161 7 -4 18 -28 25 -53 9 -33 26 -57 58 -85
51 -46 62 -48 87 -20 18 20 17 20 -13 20 -23 0 -39 10 -66 42 -43 50 -45 70
-8 98 24 20 35 22 105 17 47 -3 85 -11 95 -20 9 -7 25 -17 35 -20 9 -4 17 -13
17 -21 0 -8 10 -22 22 -31 21 -14 22 -17 8 -42 -8 -14 -39 -39 -67 -55 -48
-27 -68 -31 -220 -45 -93 -8 -176 -19 -185 -24 -25 -13 -48 -11 -115 6 -70 18
-83 19 -83 2 0 -8 31 -23 74 -37 79 -24 78 -24 256 4 52 8 109 15 125 16 62 1
72 3 141 35 81 37 130 89 120 127 -20 79 -86 123 -205 139 -69 9 -81 8 -124
-10 -59 -25 -54 -25 -67 -1 -9 17 -8 20 12 19 33 0 124 18 145 29 10 6 27 20
37 31 28 31 9 66 -50 91 -53 23 -97 24 -139 3z"/>
<path d="M3965 10217 c-17 -8 -35 -20 -42 -28 -17 -21 -75 -129 -69 -129 3 0
-3 -15 -14 -32 -11 -18 -20 -45 -20 -59 0 -30 -20 -52 -37 -41 -27 17 -53 79
-53 126 0 40 4 52 26 68 32 26 25 33 -20 18 -29 -9 -37 -18 -42 -45 -21 -112
56 -237 129 -209 15 5 40 66 72 176 34 111 109 158 171 105 l29 -25 -23 -73
c-13 -41 -27 -91 -31 -111 -13 -60 10 -46 43 25 22 47 29 78 30 131 1 62 -1
70 -24 87 -34 26 -88 32 -125 16z"/>
<path d="M5180 10165 c-75 -21 -148 -61 -259 -143 -24 -17 -49 -32 -55 -32 -7
0 -27 -12 -45 -27 -28 -24 -34 -38 -44 -98 -21 -125 5 -213 64 -215 54 -1 130
54 211 151 59 70 73 120 38 139 -22 12 -94 9 -175 -7 -27 -6 -29 -5 -16 10 7
9 22 17 31 17 26 0 50 11 50 22 0 6 -6 5 -15 -2 -12 -10 -15 -10 -14 1 1 33
185 141 262 153 59 10 55 10 122 -15 116 -43 126 -65 75 -174 -31 -67 -36 -85
-21 -85 27 0 91 129 91 183 0 58 -15 70 -143 116 -64 23 -91 24 -157 6z m-118
-285 c-9 -40 -132 -156 -190 -180 -50 -20 -64 0 -63 86 1 93 6 105 39 98 15
-3 38 -1 51 4 36 13 167 7 163 -8z"/>
<path d="M2005 10042 c-46 -30 -104 -60 -215 -111 -57 -26 -125 -66 -170 -100
-19 -15 -48 -33 -65 -41 -16 -8 -38 -22 -48 -31 -9 -9 -30 -22 -45 -30 -75
-37 -245 -181 -315 -267 -14 -18 -33 -55 -41 -82 -19 -65 -7 -108 47 -164 36
-37 50 -45 95 -51 28 -4 52 -9 52 -11 0 -2 -19 -21 -41 -42 -25 -23 -40 -45
-38 -56 3 -14 16 -7 68 38 59 51 69 56 115 58 28 0 60 0 71 -1 22 -2 151 14
235 30 114 22 284 76 355 114 80 42 116 95 83 123 -15 12 -178 -2 -215 -18
-13 -5 -53 -17 -90 -25 -38 -9 -82 -22 -100 -30 -17 -9 -44 -17 -60 -19 -42
-5 -76 -19 -218 -87 -75 -36 -99 -42 -145 -41 -86 2 -115 10 -142 40 -72 77
-63 141 34 242 91 94 183 166 306 240 59 36 130 81 157 102 28 20 102 61 165
92 175 86 225 120 218 148 -2 10 -16 5 -53 -20z m115 -661 c0 -13 -41 -41 -60
-41 -9 0 -38 -10 -66 -23 -73 -35 -111 -47 -194 -66 -41 -9 -80 -20 -86 -23
-6 -4 -51 -12 -100 -18 -49 -6 -99 -14 -111 -17 -13 -3 -23 -1 -23 4 0 14 166
81 265 108 50 13 121 33 159 45 56 18 125 31 204 39 6 0 12 -3 12 -8z"/>
<path d="M4104 9886 c5 -22 -3 -31 -61 -75 -37 -28 -74 -51 -81 -51 -8 0 -25
-9 -39 -20 -14 -11 -31 -20 -38 -20 -7 0 -26 -16 -42 -36 l-29 -37 -38 33
c-55 48 -79 107 -56 135 16 19 -7 30 -27 14 -11 -10 -14 -26 -10 -63 4 -47 9
-55 71 -113 36 -35 66 -70 66 -78 0 -8 9 -15 20 -15 11 0 20 -4 20 -8 0 -5
-30 -10 -67 -11 -38 -1 -86 -6 -108 -11 -22 -5 -66 -10 -97 -10 -47 0 -59 -4
-72 -22 -9 -12 -16 -30 -16 -40 0 -14 4 -16 23 -8 37 16 145 35 252 44 33 3
119 15 190 27 72 12 159 24 195 28 52 5 66 10 68 24 3 16 -3 18 -60 16 -34 -1
-92 -8 -128 -15 -138 -27 -144 -27 -168 11 -33 54 -27 63 90 124 85 45 178
129 178 160 0 18 -18 41 -33 41 -5 0 -6 -11 -3 -24z"/>
<path d="M5245 9793 c-28 -7 -137 -96 -167 -135 -31 -41 -48 -90 -48 -137 0
-44 14 -61 52 -61 18 0 38 -10 52 -25 27 -29 36 -31 36 -9 0 16 82 57 140 69
35 7 68 16 205 55 39 11 75 21 80 21 23 2 45 21 45 39 0 24 -11 25 -76 5 -27
-8 -62 -16 -79 -19 -16 -3 -91 -24 -165 -47 -74 -22 -149 -45 -165 -50 -40
-12 -87 2 -91 26 -4 25 29 94 58 123 80 78 135 110 211 124 10 2 19 8 20 13 2
11 -75 16 -108 8z"/>
<path d="M5700 9400 c-14 -4 -38 -8 -55 -9 -16 -1 -43 -8 -60 -17 -48 -26
-214 -74 -254 -74 -43 0 -136 -32 -162 -56 -15 -13 -16 -20 -8 -31 10 -11 14
-11 28 0 17 15 83 32 166 43 53 7 223 61 240 75 5 5 23 9 40 9 16 1 53 7 80
14 38 10 50 18 50 32 0 21 -26 27 -65 14z"/>
<path d="M3871 9347 c-47 -11 -107 -64 -117 -104 -8 -31 -19 -29 -46 7 -12 17
-26 30 -31 30 -16 0 5 -45 39 -80 19 -20 34 -40 34 -44 0 -4 14 -26 32 -48 28
-36 32 -38 41 -21 15 27 15 27 30 14 20 -16 51 -16 135 -2 63 11 78 18 105 48
43 46 50 61 49 96 -1 38 -24 62 -90 92 -58 27 -106 30 -181 12z m198 -60 c23
-15 41 -33 41 -39 0 -17 -43 -77 -60 -84 -8 -3 -35 -10 -60 -15 -101 -22 -112
-21 -167 11 -29 17 -53 34 -53 38 0 4 16 25 35 47 19 22 35 43 35 47 0 11 81
24 137 23 38 -1 63 -9 92 -28z"/>
<path d="M5230 9167 c0 -5 11 -32 24 -60 14 -29 29 -63 35 -77 5 -14 32 -53
60 -87 28 -34 47 -64 43 -66 -4 -2 -19 -7 -33 -11 -15 -3 -30 -13 -33 -23 -13
-32 10 -36 96 -15 46 11 101 23 123 26 22 4 74 14 115 23 65 13 82 18 110 28
54 20 90 43 90 58 0 21 -1 21 -96 -3 -94 -24 -201 -46 -267 -55 -48 -6 -49 -6
-102 47 -29 29 -69 80 -88 114 -38 64 -76 115 -77 101z"/>
<path d="M1820 9051 c-98 -18 -108 -21 -176 -52 -22 -11 -45 -19 -51 -19 -6 0
-13 -4 -15 -8 -1 -4 -22 -18 -45 -29 -69 -36 -162 -114 -207 -174 -24 -31 -62
-97 -87 -145 -42 -86 -44 -92 -44 -185 0 -113 9 -130 80 -148 106 -27 269 1
295 50 11 19 -6 18 -107 -8 -75 -19 -188 -12 -212 12 -12 12 -16 37 -16 103 0
83 2 90 39 157 22 39 49 87 60 108 51 96 229 218 401 275 27 9 63 15 212 37
59 9 157 -25 205 -72 45 -44 62 -110 50 -190 -8 -50 -49 -111 -110 -166 -22
-20 -91 -57 -107 -57 -5 0 -23 -7 -39 -15 -58 -30 -387 1 -457 44 -19 12 -43
21 -54 21 -18 0 -18 -2 5 -20 57 -46 144 -78 220 -81 25 -1 55 -6 68 -11 13
-4 58 -9 100 -10 60 -1 95 5 162 27 77 25 91 34 151 94 79 79 105 127 108 199
4 75 -22 141 -74 195 -78 78 -187 99 -355 68z"/>
<path d="M4034 9004 c-38 -18 -79 -56 -123 -112 -29 -38 -33 -51 -35 -106 -1
-66 8 -84 78 -159 31 -33 43 -72 27 -91 -18 -22 14 -85 72 -141 31 -30 38 -33
43 -20 4 9 -1 24 -10 33 -40 42 -66 82 -66 100 0 65 195 131 290 98 25 -9 52
-16 61 -16 8 0 27 -13 42 -28 31 -32 41 -92 27 -157 -11 -53 -92 -127 -163
-150 -28 -9 -60 -23 -71 -31 -11 -8 -28 -14 -37 -14 -18 0 -128 -35 -234 -75
-38 -15 -114 -35 -168 -46 -53 -11 -107 -24 -120 -29 -26 -12 -201 -51 -236
-53 -28 -2 -40 -25 -20 -38 19 -12 88 1 224 42 17 5 73 18 125 30 116 26 225
56 265 74 17 7 57 21 90 30 33 10 74 24 90 31 17 7 56 22 88 34 61 23 145 85
181 133 29 40 35 167 9 217 -25 48 -101 86 -190 95 -59 5 -79 3 -153 -23 -47
-16 -93 -32 -102 -36 -15 -7 -18 -3 -18 22 0 22 -10 38 -34 60 -68 59 -67 91
2 56 26 -12 42 -13 94 -4 136 24 158 41 158 127 0 47 -4 58 -37 94 -36 40 -81
69 -105 69 -7 0 -27 -7 -44 -16z m69 -33 c20 -2 77 -78 77 -102 0 -39 -34 -75
-77 -84 -120 -23 -135 -23 -161 0 l-26 23 19 42 c24 52 107 128 138 124 12 -1
26 -3 30 -3z"/>
<path d="M5700 8822 c-123 -45 -199 -136 -192 -229 3 -37 9 -47 55 -85 28 -24
62 -55 75 -70 13 -16 31 -28 39 -28 14 0 14 2 0 18 -10 10 -17 22 -17 27 0 5
-12 22 -27 37 l-27 28 90 0 c73 0 98 5 139 24 57 27 88 58 101 101 22 72 -4
121 -89 163 -60 30 -94 33 -147 14z m164 -63 c46 -29 48 -32 43 -68 -6 -51
-31 -78 -96 -107 -41 -19 -71 -24 -130 -24 -72 0 -80 2 -111 30 l-33 30 19 36
c37 69 96 119 150 127 78 11 109 6 158 -24z"/>
<path d="M6015 8421 c-38 -15 -83 -33 -100 -40 -59 -25 -172 -59 -285 -85
-147 -34 -191 -51 -213 -81 -18 -25 -18 -25 8 -25 14 0 51 9 83 21 74 26 152
49 227 64 60 12 349 125 368 144 9 9 1 32 -11 30 -4 -1 -38 -14 -77 -28z"/>
<path d="M5890 8156 c-95 -39 -135 -63 -167 -100 -32 -38 -51 -44 -71 -24 -25
25 -24 -4 1 -30 15 -16 27 -38 27 -50 0 -11 14 -44 30 -72 17 -28 30 -53 30
-56 0 -2 7 -16 16 -29 21 -32 37 -22 20 13 -7 15 -24 48 -36 75 -28 57 -20 70
18 34 36 -35 76 -46 171 -48 85 -1 139 15 211 61 59 38 74 68 60 118 -13 45
-52 77 -126 103 -83 29 -121 30 -184 5z m145 -37 c5 -5 18 -9 30 -9 11 0 37
-14 58 -31 45 -37 50 -75 12 -89 -14 -5 -35 -18 -46 -29 -30 -28 -143 -53
-208 -46 -55 6 -151 49 -158 72 -8 25 58 82 128 109 38 15 72 30 74 33 5 9 99
0 110 -10z"/>
<path d="M6072 7608 c3 -7 30 -31 61 -53 74 -53 167 -167 167 -205 0 -87 -175
-182 -305 -164 -46 6 -103 27 -115 43 -3 4 -21 17 -41 29 -45 27 -109 108
-109 137 0 11 5 26 11 32 8 8 8 13 0 17 -6 4 -11 3 -11 -2 0 -5 -10 -12 -21
-15 -19 -5 -21 -10 -14 -44 13 -68 33 -98 112 -160 76 -60 129 -78 223 -77 51
1 105 9 135 19 91 32 175 122 175 188 0 13 -9 36 -20 50 -11 14 -20 30 -20 35
0 16 -93 101 -156 143 -62 41 -78 47 -72 27z"/>
<path d="M6097 6414 c-10 -11 3 -24 22 -24 11 0 31 -16 46 -34 21 -27 40 -38
77 -45 27 -6 80 -24 117 -40 37 -16 82 -32 101 -36 18 -4 51 -15 74 -25 l40
-19 -26 -10 c-15 -5 -55 -14 -90 -19 -35 -6 -87 -19 -117 -30 -59 -22 -118
-73 -106 -92 12 -20 72 -40 119 -40 25 0 63 -7 84 -15 22 -9 44 -15 50 -13 5
2 12 -1 13 -6 4 -10 -8 -17 -61 -40 -19 -8 -67 -28 -107 -45 -39 -17 -81 -31
-92 -31 -11 0 -40 -6 -63 -14 -24 -8 -59 -17 -79 -20 -20 -3 -48 -10 -62 -15
-28 -11 -117 -27 -187 -35 -82 -9 -151 -28 -157 -42 -8 -20 3 -28 24 -19 10 5
34 9 53 11 40 3 155 22 215 36 286 65 333 78 430 122 44 20 88 41 97 46 10 6
26 10 37 10 28 0 47 26 32 44 -20 24 -100 48 -195 60 -49 6 -91 16 -92 21 -5
16 96 55 182 70 183 32 224 71 116 111 -83 31 -315 104 -328 104 -7 0 -39 18
-72 40 -57 39 -82 47 -95 34z"/>
<path d="M4393 5779 c-39 -4 -75 -9 -80 -12 -5 -3 -43 -8 -84 -11 -139 -10
-204 -17 -224 -25 -11 -5 -51 -16 -90 -25 -61 -14 -208 -80 -328 -147 -48 -27
-60 -48 -41 -74 13 -17 19 -18 76 -7 35 7 70 13 78 14 8 0 17 4 20 9 5 7 178
38 245 44 63 5 130 18 142 27 7 5 14 5 17 -1 8 -12 -32 -41 -55 -41 -10 0 -19
-4 -21 -8 -5 -13 -107 -62 -129 -62 -10 0 -19 -4 -19 -10 0 -5 -19 -14 -42
-20 -24 -7 -63 -18 -88 -25 -59 -18 -151 -27 -168 -16 -19 12 -4 43 16 32 20
-10 45 -3 36 10 -8 14 -81 11 -87 -4 -3 -7 1 -27 9 -45 13 -31 15 -32 71 -32
100 0 218 34 333 94 51 27 130 70 170 93 20 11 36 29 38 41 3 21 0 21 -65 18
-68 -3 -214 -22 -243 -31 -8 -2 -30 -7 -48 -10 -18 -3 -78 -17 -133 -31 -92
-23 -153 -28 -104 -8 11 4 22 10 25 14 3 3 25 14 50 25 25 11 59 29 76 42 53
40 93 53 284 94 62 14 91 17 194 24 50 4 93 8 97 11 18 11 205 21 215 12 3 -3
1 -14 -4 -25 -45 -85 -117 -347 -102 -372 11 -19 9 -22 46 104 14 49 36 117
49 150 13 33 30 86 38 117 13 52 13 57 -2 64 -21 10 -77 11 -168 3z"/>
<path d="M5940 5548 c0 -23 38 -38 108 -43 37 -3 90 -8 117 -11 28 -4 84 -6
125 -6 81 2 200 -18 202 -33 1 -13 -50 -38 -134 -66 -54 -18 -70 -20 -82 -10
-12 10 -17 9 -25 -8 -6 -11 -21 -22 -33 -26 -13 -3 -32 -10 -43 -15 -11 -5
-51 -18 -88 -30 -54 -17 -73 -29 -87 -53 -11 -17 -16 -35 -13 -40 3 -5 44 -8
92 -7 107 2 182 -1 156 -7 -71 -15 -110 -47 -117 -98 -4 -23 35 -45 93 -52 22
-3 39 -8 39 -12 0 -8 -53 -40 -107 -64 -24 -11 -40 -24 -36 -30 3 -6 1 -7 -5
-3 -6 4 -39 0 -74 -8 -35 -8 -101 -20 -148 -26 -90 -12 -140 -27 -140 -41 0
-5 11 -9 25 -9 31 0 32 -13 2 -33 -13 -8 -24 -22 -24 -31 0 -18 22 -22 32 -6
13 21 86 50 177 71 151 34 280 71 328 95 25 12 71 30 102 39 73 21 91 40 60
65 l-22 18 48 31 c27 17 52 31 57 31 20 0 95 57 95 73 0 14 -9 17 -44 17 -25
0 -48 5 -51 10 -3 6 -17 10 -31 10 -20 0 -25 4 -22 21 3 23 -2 27 -69 56 -23
10 -43 21 -43 24 0 4 28 19 63 34 115 50 167 80 167 96 0 12 -26 21 -107 38
-99 21 -202 29 -448 35 -38 0 -76 5 -82 9 -8 5 -13 3 -13 -5z m410 -253 c19
-7 44 -17 55 -21 33 -12 -114 -32 -254 -34 -75 -1 -99 5 -65 16 10 3 28 10 39
14 11 5 36 13 55 19 19 6 49 15 65 20 32 10 50 8 105 -14z m70 -95 c0 -5 15
-10 33 -11 17 0 40 -4 50 -7 18 -8 2 -18 -134 -91 l-55 -29 -72 13 c-117 23
-120 33 -19 71 39 15 77 31 84 36 29 23 113 36 113 18z"/>
<path d="M4015 5256 c-55 -17 -214 -101 -248 -130 -21 -18 -30 -36 -33 -70 -5
-44 -5 -45 35 -65 22 -12 47 -21 56 -21 19 0 20 -16 0 -24 -8 -3 -15 -15 -15
-26 0 -11 7 -20 15 -20 8 0 15 6 15 13 0 9 28 13 105 15 88 3 343 24 435 37
26 4 140 16 175 18 13 1 21 10 23 25 3 20 0 22 -47 22 -28 0 -95 -6 -149 -14
-53 -8 -104 -14 -112 -14 -8 0 -51 -4 -95 -9 -44 -4 -132 -7 -195 -6 -92 1
-124 6 -162 23 -26 11 -49 24 -52 28 -2 4 12 26 32 48 50 56 199 134 270 141
41 5 52 9 50 22 -4 21 -51 24 -103 7z"/>
<path d="M1612 5183 c-18 -39 -22 -65 -21 -133 0 -47 5 -107 10 -135 5 -27 12
-88 15 -135 3 -47 12 -108 21 -137 8 -28 13 -57 11 -63 -2 -7 -60 -27 -128
-45 -69 -18 -156 -45 -194 -60 -39 -14 -97 -29 -130 -32 -34 -3 -72 -10 -85
-15 -30 -11 -39 -3 -23 22 15 25 15 30 0 30 -21 -1 -68 -48 -68 -68 0 -44 42
-49 174 -20 42 9 50 8 58 -6 13 -24 41 -21 33 4 -5 16 -2 20 17 20 13 0 32 7
42 15 11 8 30 15 42 15 13 0 25 4 28 9 6 9 105 36 214 56 30 6 32 5 32 -23 0
-25 3 -29 20 -25 16 4 20 0 20 -21 0 -16 6 -26 14 -26 20 0 28 27 21 74 -5 35
-3 43 16 54 30 19 87 26 212 25 65 0 113 -5 119 -11 13 -13 -5 -80 -32 -122
-9 -14 -22 -38 -30 -55 -16 -31 -59 -80 -71 -80 -4 0 -11 -3 -15 -7 -4 -5 -16
-8 -26 -8 -11 0 -16 -4 -13 -10 3 -5 21 -10 39 -10 25 0 42 9 70 38 35 36 44
49 92 142 48 90 23 170 -51 170 -19 0 -35 5 -35 10 0 6 6 10 13 10 6 0 23 9
37 20 14 11 30 20 36 20 6 0 29 8 50 17 22 9 42 16 46 15 5 -1 36 11 70 27 35
16 71 31 81 34 9 4 17 16 17 27 0 22 -28 39 -39 23 -8 -12 -62 -37 -141 -64
-36 -12 -76 -28 -90 -35 -57 -30 -147 -66 -177 -71 -18 -3 -33 -10 -33 -14 0
-5 -13 -9 -28 -9 -16 0 -52 -7 -81 -16 -29 -8 -55 -14 -57 -12 -2 2 -15 64
-30 137 l-26 133 26 62 c14 33 26 70 26 82 0 11 5 25 12 32 6 6 8 15 4 19 -12
12 -39 -12 -49 -43 -14 -46 -29 -74 -38 -68 -9 5 -5 173 7 242 9 56 -6 53 -34
-5z"/>
<path d="M5910 4671 c0 -10 21 -14 155 -32 78 -10 170 -31 255 -59 14 -5 46
-11 72 -15 26 -3 50 -10 53 -15 3 -5 -25 -29 -63 -53 -37 -25 -73 -52 -80 -60
-7 -8 -40 -27 -75 -42 -34 -15 -64 -31 -67 -35 -3 -4 -27 -19 -53 -35 -46 -27
-97 -89 -97 -119 0 -11 32 -15 168 -20 186 -6 262 -14 262 -26 0 -5 -15 -19
-32 -31 -18 -13 -35 -26 -38 -29 -7 -8 -76 -55 -210 -142 -200 -129 -174 -114
-315 -186 -95 -48 -165 -99 -165 -119 0 -16 46 -17 55 -3 9 14 67 51 152 95
72 38 164 94 261 160 62 41 106 69 153 95 15 8 48 33 73 55 24 22 65 56 90 75
47 36 60 69 29 71 -29 2 -54 7 -113 19 -49 10 -200 13 -287 6 -18 -2 -33 1
-33 5 0 13 82 75 130 99 25 13 47 26 50 29 3 4 17 12 32 18 37 17 237 156 242
169 9 23 -15 38 -100 60 -49 12 -115 30 -146 38 -32 9 -101 18 -155 21 -54 3
-122 8 -150 10 -29 3 -53 1 -53 -4z"/>
<path d="M4499 4636 c-3 -3 -43 -8 -89 -11 -47 -3 -92 -7 -100 -10 -8 -2 -46
-7 -85 -10 -38 -3 -89 -10 -113 -16 -24 -5 -98 -16 -165 -24 -67 -8 -139 -19
-159 -25 -36 -10 -64 -40 -51 -53 3 -4 -2 -9 -11 -13 -16 -6 -23 -54 -8 -54
14 0 32 23 32 42 0 24 86 50 180 53 41 2 109 9 150 18 41 8 113 20 160 26 47
6 127 16 178 22 63 8 96 17 99 26 6 14 -9 37 -18 29z"/>
<path d="M3751 4340 c-1 -54 18 -152 31 -163 8 -7 26 -30 40 -53 20 -30 36
-43 69 -53 24 -7 52 -17 61 -22 10 -5 36 -9 58 -9 l40 0 -58 -59 c-32 -33 -63
-74 -69 -93 -11 -31 -12 -32 -18 -10 -10 29 -29 23 -33 -10 -2 -20 11 -43 57
-96 32 -38 79 -84 103 -103 73 -57 79 -63 127 -106 25 -23 54 -43 64 -43 31 0
3 34 -101 121 -99 83 -119 105 -86 96 28 -8 86 -20 109 -22 11 -2 47 -8 80
-15 56 -11 133 -10 180 4 158 45 225 101 225 188 0 26 -137 135 -192 154 -63
21 -69 34 -16 36 24 1 52 2 63 2 14 1 20 8 20 26 l0 25 -175 0 c-96 -1 -204
-2 -240 -3 -36 -1 -90 0 -120 2 -30 2 -65 0 -77 -5 -18 -7 -27 0 -61 44 -23
30 -44 69 -48 92 -4 22 -13 54 -20 70 -13 29 -13 29 -13 5z m679 -336 c30 -16
62 -35 70 -44 9 -8 33 -28 52 -44 33 -27 35 -31 26 -59 -8 -22 -25 -36 -72
-58 -33 -16 -77 -32 -96 -35 -19 -4 -40 -11 -46 -15 -20 -16 -91 -17 -186 -2
-51 8 -105 16 -120 18 -15 2 -43 9 -63 16 -72 26 -50 114 47 192 74 59 102 67
223 63 98 -3 116 -6 165 -32z"/>
<path d="M2250 4293 c0 -5 7 -17 15 -27 23 -31 18 -49 -27 -93 -39 -38 -126
-93 -148 -93 -4 0 -36 -16 -70 -35 -35 -20 -65 -34 -67 -31 -2 2 -45 -16 -94
-40 -49 -24 -92 -44 -95 -44 -6 0 -35 -13 -179 -80 -22 -10 -70 -32 -106 -49
-37 -17 -75 -31 -86 -31 -10 0 -30 -8 -43 -17 -35 -25 -130 -74 -130 -67 0 32
60 74 106 74 23 0 25 2 13 16 -10 12 -23 14 -54 9 -48 -7 -91 -44 -117 -102
-12 -28 -31 -49 -58 -64 -39 -22 -52 -51 -29 -64 5 -4 18 0 28 9 29 27 36 19
37 -47 2 -79 11 -131 26 -160 18 -31 80 -97 92 -97 5 0 17 -6 25 -14 43 -38
215 -59 278 -35 15 6 35 12 43 14 36 9 172 64 187 76 16 14 24 19 95 57 23 13
54 33 68 44 36 28 231 209 249 232 9 10 28 33 42 50 38 47 69 104 69 130 0 18
-9 26 -42 36 -57 18 -72 20 -223 21 -113 0 -311 -21 -337 -37 -4 -3 -21 -7
-38 -9 -26 -3 -29 -1 -19 11 6 8 18 14 25 14 8 0 70 27 139 60 69 33 127 60
130 60 6 0 152 68 201 93 83 44 153 126 149 175 -3 32 -56 86 -55 55z m-51
-474 c69 -15 76 -21 60 -50 -28 -54 -84 -114 -244 -261 -124 -114 -170 -147
-252 -178 -26 -10 -77 -30 -113 -44 -36 -15 -81 -29 -100 -32 -19 -3 -48 -7
-65 -10 -16 -2 -61 3 -98 12 -127 31 -193 110 -203 242 -7 93 4 108 106 159
106 52 156 74 195 84 112 31 290 70 345 77 103 13 309 14 369 1z"/>
<path d="M4605 3515 c-20 -13 -35 -16 -200 -35 -49 -6 -115 -14 -145 -19 -30
-6 -98 -17 -150 -25 -52 -8 -106 -19 -120 -22 -14 -4 -29 -6 -34 -5 -10 2
-106 -25 -146 -41 -14 -6 -51 -18 -82 -28 -82 -27 -118 -48 -128 -76 -23 -59
-2 -72 42 -25 27 28 160 91 192 91 8 0 25 4 38 9 32 13 160 40 243 51 39 6 93
14 120 20 74 15 171 30 250 39 89 11 187 39 183 53 -7 19 -42 26 -63 13z"/>
<path d="M2280 3313 c0 -10 8 -17 96 -90 28 -23 72 -67 98 -98 38 -44 48 -64
52 -101 2 -25 6 -49 8 -52 2 -4 0 -33 -3 -65 -4 -32 -4 -60 0 -63 17 -10 -17
-144 -41 -159 -5 -3 -10 -13 -10 -21 0 -9 -19 -48 -42 -87 -24 -40 -52 -89
-63 -110 -10 -22 -40 -58 -66 -80 -47 -43 -181 -124 -215 -132 -10 -2 -39 -11
-64 -20 -76 -27 -214 -16 -307 26 -24 10 -47 19 -51 19 -5 0 -28 13 -50 30
-23 17 -45 30 -50 30 -4 0 -36 20 -69 45 -60 43 -133 126 -133 150 0 7 -7 18
-15 25 -8 7 -12 16 -9 21 3 5 -2 19 -10 31 -19 26 -21 89 -4 106 9 9 7 13 -6
18 -23 9 -32 -7 -41 -65 -5 -30 -3 -47 4 -49 6 -2 11 -12 11 -23 0 -40 55
-125 125 -194 98 -96 164 -138 330 -206 32 -13 134 -29 186 -29 106 0 334 111
421 204 16 17 42 56 58 87 16 31 42 76 58 100 16 24 33 55 37 69 4 14 16 41
26 60 13 24 22 71 28 145 9 117 2 198 -21 255 -17 39 -121 139 -171 164 -18 9
-47 28 -64 42 -18 15 -33 22 -33 17z"/>
<path d="M4215 3212 c-71 -16 -145 -47 -184 -79 -56 -45 -63 -54 -96 -117 -45
-87 -42 -186 7 -246 19 -23 137 -110 148 -110 21 0 8 17 -56 75 -36 32 -72 72
-80 87 -17 33 -18 87 -2 140 31 106 186 207 308 202 156 -6 310 -113 310 -217
0 -33 -32 -71 -72 -87 -18 -7 -60 -27 -93 -43 -59 -28 -63 -29 -170 -23 -98 6
-118 10 -177 40 -38 18 -68 30 -68 25 0 -12 86 -79 102 -79 7 0 18 -4 24 -10
5 -5 33 -11 61 -14 29 -2 57 -7 62 -10 26 -16 111 -7 162 17 30 13 65 28 79
32 14 4 46 20 72 37 44 27 47 33 53 82 9 71 -17 130 -85 195 -41 39 -67 54
-128 74 -81 26 -143 36 -177 29z"/>
<path d="M4470 2508 c0 -14 40 -101 50 -108 15 -11 49 -180 52 -255 l3 -80
-80 -42 c-106 -55 -177 -67 -323 -58 -86 5 -136 13 -187 32 -124 45 -190 56
-190 33 0 -9 9 -15 23 -14 12 0 22 -5 22 -11 0 -12 36 -28 130 -59 71 -23 234
-39 331 -33 75 5 103 12 181 47 119 53 138 73 138 148 -1 98 -33 232 -75 308
-21 38 -42 71 -46 72 -5 2 -9 10 -9 18 0 8 -4 14 -10 14 -5 0 -10 -5 -10 -12z"/>
<path d="M5873 2343 c-10 -25 15 -129 48 -199 29 -60 29 -65 15 -93 -23 -43
-20 -97 5 -122 29 -29 110 -62 122 -50 17 17 -1 60 -28 66 -14 3 -36 7 -50 10
-30 6 -32 28 -9 75 l17 32 21 -24 c11 -14 43 -40 69 -59 26 -19 66 -48 88 -66
44 -36 100 -57 126 -49 43 14 150 140 187 221 23 48 27 68 22 104 -3 25 -13
55 -21 67 -21 33 -94 64 -151 64 -46 0 -148 -31 -168 -51 -6 -5 -16 -9 -23 -9
-18 0 -68 -35 -120 -84 -24 -22 -48 -36 -56 -33 -19 7 -67 139 -67 183 0 35
-16 46 -27 17z m551 -95 c37 -30 38 -33 34 -85 -3 -35 -12 -61 -25 -76 -12
-12 -41 -51 -65 -86 -33 -48 -52 -66 -80 -76 -21 -7 -38 -9 -38 -4 0 4 -9 11
-20 14 -27 9 -220 152 -220 164 0 14 40 60 65 73 142 77 175 91 230 98 33 4
65 8 70 9 6 0 28 -13 49 -31z"/>
<path d="M6662 1838 c-127 -104 -346 -247 -442 -289 -14 -6 -34 -16 -45 -22
-60 -34 -132 -67 -142 -67 -7 0 -13 -4 -13 -10 0 -5 -6 -10 -14 -10 -7 0 -53
-36 -100 -80 -48 -45 -90 -79 -95 -76 -4 3 -14 24 -21 48 -7 24 -18 48 -23 55
-5 7 -14 34 -21 59 -16 64 -36 69 -36 10 0 -27 12 -76 30 -121 17 -42 30 -82
30 -91 0 -24 132 -194 151 -194 16 0 9 31 -11 48 -11 10 -33 43 -50 75 l-29
59 70 66 c71 68 119 97 365 222 67 34 130 68 140 76 11 8 42 29 69 46 28 18
64 45 80 60 32 29 83 67 126 95 38 24 51 49 35 62 -10 9 -23 4 -54 -21z"/>
<path d="M5901 696 c-17 -18 -21 -30 -16 -47 7 -22 43 -78 56 -89 10 -7 28
-78 22 -84 -3 -2 7 -12 21 -21 14 -10 26 -24 26 -31 0 -8 7 -14 15 -14 12 0
14 7 9 28 -7 26 -6 26 12 10 10 -9 31 -20 47 -23 31 -8 32 -12 12 -39 -20 -27
-19 -52 5 -102 34 -70 140 -157 140 -115 0 4 -20 31 -45 60 -64 75 -80 108
-66 137 14 32 69 64 109 64 39 0 102 -24 102 -39 0 -6 9 -20 19 -30 15 -15 18
-26 12 -53 -10 -42 -27 -75 -57 -107 -13 -14 -24 -29 -24 -33 0 -4 -13 -14
-30 -23 -16 -9 -30 -12 -30 -9 0 4 -9 -1 -20 -11 -11 -10 -20 -15 -20 -12 0 3
-16 -1 -35 -9 -45 -18 -132 -18 -169 1 -15 8 -31 13 -35 11 -4 -3 -16 7 -27
21 -10 15 -25 32 -31 39 -7 7 -13 20 -13 28 0 9 -4 16 -10 16 -14 0 -12 56 2
80 17 26 -3 50 -26 31 -20 -16 -31 -88 -18 -115 6 -11 20 -42 31 -67 24 -54
34 -64 87 -83 79 -27 150 -29 222 -5 113 37 135 52 186 129 36 54 49 83 53
118 7 83 -48 150 -124 151 -36 1 -42 16 -18 47 32 42 7 142 -43 168 -24 13
-76 20 -124 17 -9 -1 -44 -26 -76 -56 l-59 -55 -27 32 c-32 39 -32 51 -4 70
12 8 18 19 14 26 -11 19 -30 14 -55 -12z m292 -48 c100 -52 64 -154 -61 -174
-36 -6 -43 -3 -81 31 -22 21 -41 41 -41 45 0 8 45 55 78 82 17 14 33 20 75 27
5 0 18 -4 30 -11z"/>
</g>
</svg>
